{"glyphs":{"0":{"ha":833,"x_min":72,"x_max":761,"o":"m 417 -12 q 161 117 250 -12 q 72 490 72 246 q 161 864 72 736 q 417 992 250 992 q 673 864 585 992 q 761 492 761 736 q 672 117 761 246 q 417 -12 583 -12 m 417 88 q 590 186 533 88 q 647 492 647 285 q 590 797 647 700 q 417 893 533 893 q 244 796 301 893 q 186 492 186 699 q 244 186 186 285 q 417 88 301 88 z "},"1":{"ha":833,"x_min":176,"x_max":739,"o":"m 176 0 l 176 99 l 407 99 l 407 843 l 199 713 l 199 828 l 439 979 l 522 979 l 522 99 l 739 99 l 739 0 l 176 0 z "},"2":{"ha":833,"x_min":85,"x_max":760,"o":"m 119 0 l 119 86 l 467 449 q 569 584 535 519 q 603 718 603 649 q 550 847 603 803 q 397 890 497 890 q 253 863 319 890 q 126 778 188 836 l 85 868 q 226 958 140 924 q 408 992 313 992 q 638 923 557 992 q 718 728 718 854 q 673 551 718 635 q 542 378 628 467 l 267 99 l 760 99 l 760 0 l 119 0 z "},"3":{"ha":833,"x_min":71,"x_max":747,"o":"m 411 -12 q 222 18 313 -12 q 71 106 132 49 l 114 194 q 254 114 182 139 q 410 89 326 89 q 576 135 519 89 q 633 272 633 182 q 575 403 633 358 q 404 449 517 449 l 257 449 l 257 544 l 394 544 q 549 594 492 544 q 606 731 606 644 q 553 849 606 808 q 404 890 501 890 q 131 778 246 890 l 88 868 q 231 959 144 926 q 411 992 317 992 q 638 925 556 992 q 719 740 719 858 q 668 586 719 650 q 558 507 625 532 q 690 431 642 486 q 747 264 747 364 q 658 62 747 136 q 411 -12 568 -12 z "},"4":{"ha":833,"x_min":69,"x_max":799,"o":"m 536 0 l 536 213 l 69 213 l 69 296 l 554 979 l 649 979 l 649 306 l 799 306 l 799 213 l 649 213 l 649 0 l 536 0 m 536 306 l 536 800 l 185 306 l 536 306 z "},"5":{"ha":833,"x_min":101,"x_max":774,"o":"m 435 -12 q 310 1 371 -12 q 195 42 249 15 q 101 106 142 68 l 144 194 q 283 115 213 140 q 435 89 354 89 q 600 146 540 89 q 660 296 660 203 q 603 453 660 392 q 444 514 546 514 q 315 485 372 514 q 217 397 258 457 l 133 397 l 133 979 l 714 979 l 714 882 l 244 882 l 244 531 q 318 582 275 561 q 467 613 383 613 q 630 574 561 613 q 736 465 699 535 q 774 303 774 396 q 733 138 774 210 q 616 27 692 67 q 435 -12 540 -12 z "},"6":{"ha":833,"x_min":78,"x_max":767,"o":"m 449 -12 q 174 113 271 -12 q 78 465 78 239 q 126 752 78 635 q 265 931 175 869 q 483 992 356 992 q 638 960 560 992 q 765 874 715 929 l 724 785 q 608 865 671 839 q 482 890 546 890 q 265 790 340 890 q 189 488 189 689 l 189 419 q 225 496 201 461 q 325 583 263 553 q 464 614 388 614 q 621 575 553 614 q 728 466 689 536 q 767 306 767 396 q 726 142 767 214 q 614 28 686 69 q 449 -12 542 -12 m 440 85 q 553 112 504 85 q 630 188 603 139 q 657 301 657 238 q 630 414 657 365 q 553 490 603 463 q 440 518 504 518 q 328 490 376 518 q 252 414 279 463 q 225 301 225 365 q 252 188 225 238 q 328 112 279 139 q 440 85 376 85 z "},"7":{"ha":833,"x_min":92,"x_max":743,"o":"m 157 0 l 613 881 l 92 881 l 92 979 l 743 979 l 743 893 l 283 0 l 157 0 z "},"8":{"ha":833,"x_min":65,"x_max":769,"o":"m 417 -12 q 157 59 249 -12 q 65 260 65 131 q 128 429 65 361 q 250 501 176 481 q 144 575 186 525 q 89 731 89 640 q 176 923 89 854 q 417 992 264 992 q 658 923 571 992 q 746 731 746 854 q 694 574 746 640 q 590 501 654 522 q 710 429 663 481 q 769 260 769 361 q 678 59 769 131 q 417 -12 586 -12 m 417 82 q 599 128 539 82 q 660 267 660 174 q 599 403 660 358 q 417 449 539 449 q 234 403 294 449 q 174 267 174 358 q 235 128 174 174 q 417 82 296 82 m 417 543 q 578 590 522 543 q 635 721 635 638 q 578 851 635 804 q 417 897 522 897 q 255 851 311 897 q 199 721 199 804 q 255 590 199 638 q 417 543 311 543 z "},"9":{"ha":833,"x_min":67,"x_max":757,"o":"m 351 -12 q 197 20 275 -12 q 68 106 119 53 l 111 196 q 226 115 164 142 q 353 89 289 89 q 569 190 493 89 q 644 492 644 290 l 644 554 q 611 485 632 517 q 509 396 571 426 q 371 365 447 365 q 213 404 282 365 q 106 514 144 443 q 67 674 67 585 q 108 838 67 767 q 220 951 149 910 q 385 992 292 992 q 660 867 564 992 q 757 514 757 742 q 708 228 757 346 q 569 49 660 110 q 351 -12 479 -12 m 394 461 q 507 489 458 461 q 583 565 556 517 q 610 678 610 614 q 583 792 610 743 q 507 868 556 840 q 394 896 458 896 q 281 868 331 896 q 205 792 232 840 q 178 678 178 743 q 205 565 178 614 q 281 489 232 517 q 394 461 331 461 z "},"A":{"ha":1021,"x_min":25,"x_max":996,"o":"m 25 0 l 457 979 l 557 979 l 996 0 l 876 0 l 767 250 l 250 250 l 143 0 l 25 0 m 506 847 l 292 344 l 728 344 l 508 847 l 506 847 z "},"Á":{"ha":1021,"x_min":25,"x_max":996,"o":"m 25 0 l 457 979 l 557 979 l 996 0 l 876 0 l 767 250 l 250 250 l 143 0 l 25 0 m 506 847 l 292 344 l 728 344 l 508 847 l 506 847 m 465 1063 l 629 1301 l 756 1301 l 551 1063 l 465 1063 z "},"Ă":{"ha":1021,"x_min":25,"x_max":996,"o":"m 25 0 l 457 979 l 557 979 l 996 0 l 876 0 l 767 250 l 250 250 l 143 0 l 25 0 m 506 847 l 292 344 l 728 344 l 508 847 l 506 847 m 508 1056 q 346 1118 410 1056 q 274 1289 282 1181 l 344 1299 q 394 1175 351 1219 q 508 1131 438 1131 q 623 1175 579 1131 q 672 1299 667 1219 l 743 1289 q 671 1118 735 1181 q 508 1056 607 1056 z "},"Â":{"ha":1021,"x_min":25,"x_max":996,"o":"m 25 0 l 457 979 l 557 979 l 996 0 l 876 0 l 767 250 l 250 250 l 143 0 l 25 0 m 506 847 l 292 344 l 728 344 l 508 847 l 506 847 m 285 1063 l 456 1301 l 561 1301 l 732 1063 l 647 1063 l 508 1228 l 369 1063 l 285 1063 z "},"Ä":{"ha":1021,"x_min":25,"x_max":996,"o":"m 25 0 l 457 979 l 557 979 l 996 0 l 876 0 l 767 250 l 250 250 l 143 0 l 25 0 m 506 847 l 292 344 l 728 344 l 508 847 l 506 847 m 569 1119 l 569 1239 l 689 1239 l 689 1119 l 569 1119 m 328 1119 l 328 1239 l 447 1239 l 447 1119 l 328 1119 z "},"À":{"ha":1021,"x_min":25,"x_max":996,"o":"m 25 0 l 457 979 l 557 979 l 996 0 l 876 0 l 767 250 l 250 250 l 143 0 l 25 0 m 506 847 l 292 344 l 728 344 l 508 847 l 506 847 m 465 1063 l 261 1301 l 388 1301 l 551 1063 l 465 1063 z "},"Å":{"ha":1021,"x_min":25,"x_max":996,"o":"m 25 0 l 457 979 l 557 979 l 996 0 l 876 0 l 767 250 l 250 250 l 143 0 l 25 0 m 506 847 l 292 344 l 728 344 l 508 847 l 506 847 m 508 1053 q 425 1074 463 1053 q 365 1133 388 1096 q 343 1214 343 1169 q 365 1295 343 1260 q 425 1352 388 1331 q 508 1374 463 1374 q 592 1352 556 1374 q 651 1295 629 1331 q 674 1214 674 1260 q 651 1133 674 1169 q 592 1074 629 1096 q 508 1053 556 1053 m 508 1113 q 581 1142 553 1113 q 608 1214 608 1171 q 581 1285 608 1256 q 508 1314 553 1314 q 437 1285 465 1314 q 408 1214 408 1256 q 437 1142 408 1171 q 508 1113 465 1113 z "},"Ã":{"ha":1021,"x_min":25,"x_max":996,"o":"m 25 0 l 457 979 l 557 979 l 996 0 l 876 0 l 767 250 l 250 250 l 143 0 l 25 0 m 506 847 l 292 344 l 728 344 l 508 847 l 506 847 m 282 1088 l 218 1092 q 272 1228 226 1181 q 385 1276 317 1276 q 449 1263 417 1276 q 528 1219 482 1250 q 593 1182 571 1193 q 636 1171 615 1171 q 701 1199 678 1171 q 735 1281 725 1228 l 799 1276 q 746 1140 790 1188 q 633 1092 701 1092 q 568 1106 601 1092 q 485 1151 535 1119 q 424 1187 447 1176 q 381 1197 400 1197 q 315 1169 339 1197 q 282 1088 292 1140 z "},"Æ":{"ha":1397,"x_min":-3,"x_max":1328,"o":"m -3 0 l 596 979 l 1328 979 l 1328 885 l 806 885 l 836 544 l 1297 544 l 1297 449 l 844 449 l 878 96 l 1328 96 l 1328 0 l 778 0 l 754 250 l 276 250 l 125 0 l -3 0 m 654 883 l 333 346 l 747 346 l 699 883 l 654 883 z "},"B":{"ha":944,"x_min":122,"x_max":864,"o":"m 122 0 l 122 979 l 514 979 q 754 913 669 979 q 839 724 839 846 q 785 571 839 632 q 676 501 743 525 q 803 436 754 483 q 864 269 864 374 q 777 69 864 139 q 532 0 690 0 l 122 0 m 235 93 l 521 93 q 688 134 626 93 q 750 271 750 175 q 688 409 750 368 q 521 450 626 450 l 235 450 l 235 93 m 235 542 l 497 542 q 668 586 611 542 q 725 714 725 631 q 668 844 725 800 q 497 888 611 888 l 235 888 l 235 542 z "},"C":{"ha":950,"x_min":86,"x_max":878,"o":"m 549 -12 q 299 49 401 -12 q 141 222 196 110 q 86 490 86 335 q 141 758 86 646 q 299 931 196 869 q 549 992 401 992 q 735 960 653 992 q 878 867 817 928 l 835 775 q 703 860 768 833 q 550 888 638 888 q 294 783 382 888 q 207 490 207 679 q 294 197 207 301 q 550 92 382 92 q 703 119 638 92 q 835 206 768 146 l 878 113 q 735 20 817 53 q 549 -12 653 -12 z "},"Ç":{"ha":950,"x_min":86,"x_max":878,"o":"m 547 -267 q 478 -260 511 -267 q 422 -240 446 -253 l 442 -179 q 490 -196 467 -190 q 543 -201 513 -201 q 603 -188 581 -201 q 625 -150 625 -175 q 572 -111 625 -111 q 542 -113 557 -111 q 507 -124 528 -115 l 483 -101 l 499 -11 q 299 49 383 -1 q 141 222 196 110 q 86 490 86 335 q 141 758 86 646 q 299 931 196 869 q 549 992 401 992 q 735 960 653 992 q 878 867 817 928 l 835 775 q 703 860 768 833 q 550 888 638 888 q 294 783 382 888 q 207 490 207 679 q 294 197 207 301 q 550 92 382 92 q 703 119 638 92 q 835 206 768 146 l 878 113 q 735 21 817 53 q 568 -12 661 -10 l 560 -61 q 586 -58 574 -58 q 669 -83 636 -58 q 703 -153 703 -108 q 660 -235 703 -204 q 547 -267 617 -267 z "},"D":{"ha":1038,"x_min":122,"x_max":951,"o":"m 122 0 l 122 979 l 447 979 q 722 923 610 979 q 893 758 835 867 q 951 490 951 649 q 893 224 951 333 q 722 57 835 114 q 447 0 610 0 l 122 0 m 238 99 l 439 99 q 736 197 639 99 q 833 490 833 294 q 736 785 833 688 q 439 882 639 882 l 238 882 l 238 99 z "},"Ð":{"ha":1038,"x_min":3,"x_max":951,"o":"m 122 0 l 122 453 l 3 453 l 3 542 l 122 542 l 122 979 l 447 979 q 722 923 610 979 q 893 758 835 867 q 951 490 951 649 q 893 224 951 333 q 722 57 835 114 q 447 0 610 0 l 122 0 m 238 99 l 439 99 q 736 197 639 99 q 833 490 833 294 q 736 785 833 688 q 439 882 639 882 l 238 882 l 238 542 l 513 542 l 513 453 l 238 453 l 238 99 z "},"E":{"ha":817,"x_min":122,"x_max":747,"o":"m 122 0 l 122 979 l 747 979 l 747 885 l 235 885 l 235 544 l 717 544 l 717 449 l 235 449 l 235 96 l 747 96 l 747 0 l 122 0 z "},"É":{"ha":817,"x_min":122,"x_max":747,"o":"m 122 0 l 122 979 l 747 979 l 747 885 l 235 885 l 235 544 l 717 544 l 717 449 l 235 449 l 235 96 l 747 96 l 747 0 l 122 0 m 413 1063 l 576 1301 l 703 1301 l 499 1063 l 413 1063 z "},"Ê":{"ha":817,"x_min":122,"x_max":747,"o":"m 122 0 l 122 979 l 747 979 l 747 885 l 235 885 l 235 544 l 717 544 l 717 449 l 235 449 l 235 96 l 747 96 l 747 0 l 122 0 m 232 1063 l 403 1301 l 508 1301 l 679 1063 l 594 1063 l 456 1228 l 317 1063 l 232 1063 z "},"Ë":{"ha":817,"x_min":122,"x_max":747,"o":"m 122 0 l 122 979 l 747 979 l 747 885 l 235 885 l 235 544 l 717 544 l 717 449 l 235 449 l 235 96 l 747 96 l 747 0 l 122 0 m 517 1119 l 517 1239 l 636 1239 l 636 1119 l 517 1119 m 275 1119 l 275 1239 l 394 1239 l 394 1119 l 275 1119 z "},"È":{"ha":817,"x_min":122,"x_max":747,"o":"m 122 0 l 122 979 l 747 979 l 747 885 l 235 885 l 235 544 l 717 544 l 717 449 l 235 449 l 235 96 l 747 96 l 747 0 l 122 0 m 413 1063 l 208 1301 l 335 1301 l 499 1063 l 413 1063 z "},"F":{"ha":781,"x_min":122,"x_max":733,"o":"m 122 0 l 122 979 l 733 979 l 733 885 l 238 885 l 238 542 l 703 542 l 703 447 l 238 447 l 238 0 l 122 0 z "},"G":{"ha":1015,"x_min":86,"x_max":904,"o":"m 572 -12 q 303 47 411 -12 q 140 219 194 107 q 86 489 86 332 q 143 757 86 644 q 307 931 200 869 q 565 992 414 992 q 751 960 672 992 q 892 868 829 929 l 849 778 q 760 842 803 818 q 672 877 718 865 q 565 889 626 889 q 299 784 392 889 q 207 488 207 679 q 297 192 207 294 q 575 89 386 89 q 708 103 644 89 q 806 131 758 113 l 806 422 l 556 422 l 556 513 l 904 513 l 904 58 q 753 7 844 26 q 572 -12 663 -12 z "},"H":{"ha":1064,"x_min":122,"x_max":942,"o":"m 122 0 l 122 979 l 238 979 l 238 546 l 828 546 l 828 979 l 942 979 l 942 0 l 828 0 l 828 447 l 238 447 l 238 0 l 122 0 z "},"I":{"ha":360,"x_min":122,"x_max":238,"o":"m 122 0 l 122 979 l 238 979 l 238 0 l 122 0 z "},"Í":{"ha":360,"x_min":122,"x_max":426,"o":"m 122 0 l 122 979 l 238 979 l 238 0 l 122 0 m 136 1063 l 300 1301 l 426 1301 l 222 1063 l 136 1063 z "},"Î":{"ha":360,"x_min":-43,"x_max":403,"o":"m 122 0 l 122 979 l 238 979 l 238 0 l 122 0 m -44 1063 l 126 1301 l 232 1301 l 403 1063 l 318 1063 l 179 1228 l 40 1063 l -44 1063 z "},"Ï":{"ha":360,"x_min":-1,"x_max":361,"o":"m 122 0 l 122 979 l 238 979 l 238 0 l 122 0 m 240 1119 l 240 1239 l 360 1239 l 360 1119 l 240 1119 m -1 1119 l -1 1239 l 118 1239 l 118 1119 l -1 1119 z "},"Ì":{"ha":360,"x_min":-68,"x_max":238,"o":"m 122 0 l 122 979 l 238 979 l 238 0 l 122 0 m 136 1063 l -68 1301 l 58 1301 l 222 1063 l 136 1063 z "},"J":{"ha":457,"x_min":1,"x_max":335,"o":"m 110 -258 q 59 -256 88 -258 q 1 -247 31 -254 l 1 -151 q 51 -160 28 -157 q 92 -164 74 -164 q 188 -124 156 -164 q 219 1 219 -85 l 219 979 l 335 979 l 335 0 q 310 -142 335 -83 q 237 -229 286 -200 q 110 -258 188 -258 z "},"K":{"ha":881,"x_min":122,"x_max":896,"o":"m 122 0 l 122 979 l 238 979 l 238 535 l 240 535 l 710 979 l 857 979 l 349 504 l 896 0 l 744 0 l 240 461 l 238 461 l 238 0 l 122 0 z "},"L":{"ha":757,"x_min":122,"x_max":732,"o":"m 122 0 l 122 979 l 238 979 l 238 100 l 732 100 l 732 0 l 122 0 z "},"M":{"ha":1192,"x_min":124,"x_max":1069,"o":"m 124 0 l 124 979 l 224 979 l 597 138 l 969 979 l 1069 979 l 1069 0 l 964 0 l 964 738 l 635 0 l 558 0 l 228 738 l 228 0 l 124 0 z "},"N":{"ha":1038,"x_min":122,"x_max":915,"o":"m 122 0 l 122 979 l 213 979 l 808 189 l 808 979 l 915 979 l 915 0 l 826 0 l 229 793 l 229 0 l 122 0 z "},"Ñ":{"ha":1038,"x_min":122,"x_max":915,"o":"m 122 0 l 122 979 l 213 979 l 808 189 l 808 979 l 915 979 l 915 0 l 826 0 l 229 793 l 229 0 l 122 0 m 294 1088 l 231 1092 q 284 1228 239 1181 q 397 1276 329 1276 q 462 1263 429 1276 q 540 1219 494 1250 q 606 1182 583 1193 q 649 1171 628 1171 q 714 1199 690 1171 q 747 1281 738 1228 l 811 1276 q 758 1140 803 1188 q 646 1092 714 1092 q 581 1106 614 1092 q 497 1151 547 1119 q 436 1187 460 1176 q 393 1197 413 1197 q 328 1169 351 1197 q 294 1088 304 1140 z "},"O":{"ha":1072,"x_min":86,"x_max":986,"o":"m 86 490 q 140 758 86 646 q 294 931 193 869 q 536 992 394 992 q 775 931 674 992 q 931 758 876 869 q 986 492 986 646 q 931 224 986 336 q 774 49 875 111 q 536 -12 674 -12 q 294 49 394 -12 q 140 224 194 111 q 86 490 86 336 m 207 490 q 290 195 207 301 q 536 89 374 89 q 778 195 692 89 q 865 490 865 301 q 779 785 865 681 q 536 890 693 890 q 290 785 374 890 q 207 490 207 681 z "},"Ó":{"ha":1072,"x_min":86,"x_max":986,"o":"m 86 490 q 140 758 86 646 q 294 931 193 869 q 536 992 394 992 q 775 931 674 992 q 931 758 876 869 q 986 492 986 646 q 931 224 986 336 q 774 49 875 111 q 536 -12 674 -12 q 294 49 394 -12 q 140 224 194 111 q 86 490 86 336 m 207 490 q 290 195 207 301 q 536 89 374 89 q 778 195 692 89 q 865 490 865 301 q 779 785 865 681 q 536 890 693 890 q 290 785 374 890 q 207 490 207 681 m 493 1063 l 657 1301 l 783 1301 l 579 1063 l 493 1063 z "},"Ô":{"ha":1072,"x_min":86,"x_max":986,"o":"m 86 490 q 140 758 86 646 q 294 931 193 869 q 536 992 394 992 q 775 931 674 992 q 931 758 876 869 q 986 492 986 646 q 931 224 986 336 q 774 49 875 111 q 536 -12 674 -12 q 294 49 394 -12 q 140 224 194 111 q 86 490 86 336 m 207 490 q 290 195 207 301 q 536 89 374 89 q 778 195 692 89 q 865 490 865 301 q 779 785 865 681 q 536 890 693 890 q 290 785 374 890 q 207 490 207 681 m 313 1063 l 483 1301 l 589 1301 l 760 1063 l 675 1063 l 536 1228 l 397 1063 l 313 1063 z "},"Ö":{"ha":1072,"x_min":86,"x_max":986,"o":"m 86 490 q 140 758 86 646 q 294 931 193 869 q 536 992 394 992 q 775 931 674 992 q 931 758 876 869 q 986 492 986 646 q 931 224 986 336 q 774 49 875 111 q 536 -12 674 -12 q 294 49 394 -12 q 140 224 194 111 q 86 490 86 336 m 207 490 q 290 195 207 301 q 536 89 374 89 q 778 195 692 89 q 865 490 865 301 q 779 785 865 681 q 536 890 693 890 q 290 785 374 890 q 207 490 207 681 m 597 1119 l 597 1239 l 717 1239 l 717 1119 l 597 1119 m 356 1119 l 356 1239 l 475 1239 l 475 1119 l 356 1119 z "},"Ò":{"ha":1072,"x_min":86,"x_max":986,"o":"m 86 490 q 140 758 86 646 q 294 931 193 869 q 536 992 394 992 q 775 931 674 992 q 931 758 876 869 q 986 492 986 646 q 931 224 986 336 q 774 49 875 111 q 536 -12 674 -12 q 294 49 394 -12 q 140 224 194 111 q 86 490 86 336 m 207 490 q 290 195 207 301 q 536 89 374 89 q 778 195 692 89 q 865 490 865 301 q 779 785 865 681 q 536 890 693 890 q 290 785 374 890 q 207 490 207 681 m 493 1063 l 289 1301 l 415 1301 l 579 1063 l 493 1063 z "},"Ø":{"ha":1072,"x_min":86,"x_max":986,"o":"m 86 490 q 140 758 86 646 q 294 931 193 869 q 536 992 394 992 q 751 943 658 992 l 811 1044 l 889 999 l 828 893 q 932 758 892 839 q 986 492 986 646 q 931 224 986 336 q 774 49 875 111 q 536 -12 674 -12 q 325 32 415 -12 l 268 -65 l 190 -19 l 249 82 q 140 224 182 138 q 86 490 86 336 m 207 490 q 290 196 207 301 q 308 174 299 183 l 704 850 q 536 890 633 890 q 290 785 374 890 q 207 490 207 681 m 767 800 l 374 125 q 536 89 442 89 q 778 195 692 89 q 865 490 865 301 q 779 786 865 681 q 767 800 774 793 z "},"Õ":{"ha":1072,"x_min":86,"x_max":986,"o":"m 86 490 q 140 758 86 646 q 294 931 193 869 q 536 992 394 992 q 775 931 674 992 q 931 758 876 869 q 986 492 986 646 q 931 224 986 336 q 774 49 875 111 q 536 -12 674 -12 q 294 49 394 -12 q 140 224 194 111 q 86 490 86 336 m 207 490 q 290 195 207 301 q 536 89 374 89 q 778 195 692 89 q 865 490 865 301 q 779 785 865 681 q 536 890 693 890 q 290 785 374 890 q 207 490 207 681 m 310 1088 l 246 1092 q 299 1228 254 1181 q 413 1276 344 1276 q 477 1263 444 1276 q 556 1219 510 1250 q 621 1182 599 1193 q 664 1171 643 1171 q 729 1199 706 1171 q 763 1281 753 1228 l 826 1276 q 774 1140 818 1188 q 661 1092 729 1092 q 596 1106 629 1092 q 513 1151 563 1119 q 451 1187 475 1176 q 408 1197 428 1197 q 343 1169 367 1197 q 310 1088 319 1140 z "},"Œ":{"ha":1467,"x_min":86,"x_max":1397,"o":"m 776 0 l 776 61 q 726 31 753 43 q 633 -1 683 10 q 529 -12 583 -12 q 291 49 390 -12 q 139 224 192 111 q 86 490 86 336 q 138 758 86 646 q 290 931 190 869 q 529 992 389 992 q 678 974 608 992 q 776 926 733 960 l 776 979 l 1397 979 l 1397 885 l 889 885 l 889 544 l 1368 544 l 1368 449 l 889 449 l 889 96 l 1397 96 l 1397 0 l 776 0 m 776 804 q 690 865 740 844 q 536 890 624 890 q 290 785 374 890 q 207 490 207 681 q 290 195 207 301 q 536 89 374 89 q 694 119 626 89 q 776 179 742 140 l 776 804 z "},"P":{"ha":904,"x_min":122,"x_max":842,"o":"m 122 0 l 122 979 l 521 979 q 758 905 675 979 q 842 699 842 831 q 758 494 842 569 q 521 418 675 418 l 238 418 l 238 0 l 122 0 m 238 514 l 510 514 q 672 563 617 514 q 726 699 726 611 q 672 836 726 788 q 510 885 617 885 l 238 885 l 238 514 z "},"Þ":{"ha":906,"x_min":122,"x_max":842,"o":"m 122 0 l 122 979 l 238 979 l 238 792 l 518 792 q 756 717 671 792 q 842 511 842 643 q 756 306 842 381 q 518 231 671 231 l 238 231 l 238 0 l 122 0 m 238 326 l 510 326 q 672 375 617 326 q 726 511 726 424 q 672 649 726 600 q 510 697 617 697 l 238 697 l 238 326 z "},"Q":{"ha":1072,"x_min":86,"x_max":986,"o":"m 800 -265 q 717 -197 760 -239 q 636 -104 674 -156 q 575 -11 601 -58 q 536 -12 556 -12 q 294 49 394 -12 q 140 224 194 111 q 86 490 86 336 q 140 758 86 646 q 294 931 193 869 q 536 992 394 992 q 775 931 674 992 q 931 758 876 869 q 986 492 986 646 q 931 224 986 336 q 775 50 875 111 q 685 8 733 24 q 764 -94 718 -47 q 879 -197 821 -154 l 800 -265 m 207 490 q 290 195 207 301 q 536 89 374 89 q 778 195 692 89 q 865 490 865 301 q 779 785 865 681 q 536 890 693 890 q 290 785 374 890 q 207 490 207 681 z "},"R":{"ha":961,"x_min":122,"x_max":906,"o":"m 122 0 l 122 979 l 522 979 q 761 906 676 979 q 846 703 846 833 q 808 556 846 617 q 701 464 769 496 q 644 444 674 451 q 696 422 671 438 q 767 329 740 394 l 906 0 l 779 0 l 646 324 q 575 405 622 386 q 457 424 528 424 l 238 424 l 238 0 l 122 0 m 238 514 l 506 514 q 674 562 617 514 q 732 700 732 610 q 674 838 732 790 q 506 885 617 885 l 238 885 l 238 514 z "},"S":{"ha":865,"x_min":68,"x_max":801,"o":"m 442 -12 q 231 18 324 -12 q 68 106 138 49 l 110 197 q 208 137 158 161 q 314 101 257 113 q 442 89 371 89 q 625 135 565 89 q 685 257 685 181 q 643 357 685 322 q 497 413 601 392 l 351 442 q 151 532 217 469 q 85 701 85 594 q 130 854 85 789 q 257 956 175 919 q 447 992 339 992 q 638 960 551 992 q 785 869 724 929 l 744 781 q 608 865 679 839 q 446 890 536 890 q 266 841 332 890 q 200 707 200 792 q 242 601 200 639 q 379 543 283 563 l 526 514 q 735 426 668 485 q 801 263 801 368 q 758 119 801 182 q 633 22 714 57 q 442 -12 553 -12 z "},"T":{"ha":839,"x_min":14,"x_max":819,"o":"m 360 0 l 360 882 l 14 882 l 14 979 l 819 979 l 819 882 l 475 882 l 475 0 l 360 0 z "},"U":{"ha":1014,"x_min":117,"x_max":900,"o":"m 508 -12 q 213 89 310 -12 q 117 388 117 190 l 117 979 l 231 979 l 231 393 q 297 165 231 242 q 508 89 364 89 q 715 165 644 89 q 786 393 786 242 l 786 979 l 900 979 l 900 388 q 801 89 900 190 q 508 -12 701 -12 z "},"Ú":{"ha":1014,"x_min":117,"x_max":900,"o":"m 508 -12 q 213 89 310 -12 q 117 388 117 190 l 117 979 l 231 979 l 231 393 q 297 165 231 242 q 508 89 364 89 q 715 165 644 89 q 786 393 786 242 l 786 979 l 900 979 l 900 388 q 801 89 900 190 q 508 -12 701 -12 m 465 1063 l 629 1301 l 756 1301 l 551 1063 l 465 1063 z "},"Û":{"ha":1014,"x_min":117,"x_max":900,"o":"m 508 -12 q 213 89 310 -12 q 117 388 117 190 l 117 979 l 231 979 l 231 393 q 297 165 231 242 q 508 89 364 89 q 715 165 644 89 q 786 393 786 242 l 786 979 l 900 979 l 900 388 q 801 89 900 190 q 508 -12 701 -12 m 285 1063 l 456 1301 l 561 1301 l 732 1063 l 647 1063 l 508 1228 l 369 1063 l 285 1063 z "},"Ü":{"ha":1014,"x_min":117,"x_max":900,"o":"m 508 -12 q 213 89 310 -12 q 117 388 117 190 l 117 979 l 231 979 l 231 393 q 297 165 231 242 q 508 89 364 89 q 715 165 644 89 q 786 393 786 242 l 786 979 l 900 979 l 900 388 q 801 89 900 190 q 508 -12 701 -12 m 569 1119 l 569 1239 l 689 1239 l 689 1119 l 569 1119 m 328 1119 l 328 1239 l 447 1239 l 447 1119 l 328 1119 z "},"Ù":{"ha":1014,"x_min":117,"x_max":900,"o":"m 508 -12 q 213 89 310 -12 q 117 388 117 190 l 117 979 l 231 979 l 231 393 q 297 165 231 242 q 508 89 364 89 q 715 165 644 89 q 786 393 786 242 l 786 979 l 900 979 l 900 388 q 801 89 900 190 q 508 -12 701 -12 m 465 1063 l 261 1301 l 388 1301 l 551 1063 l 465 1063 z "},"V":{"ha":969,"x_min":4,"x_max":965,"o":"m 431 0 l 4 979 l 128 979 l 486 142 l 846 979 l 965 979 l 536 0 l 431 0 z "},"W":{"ha":1544,"x_min":47,"x_max":1497,"o":"m 389 0 l 47 979 l 168 979 l 443 167 l 732 979 l 824 979 l 1099 163 l 1383 979 l 1497 979 l 1153 0 l 1050 0 l 775 807 l 489 0 l 389 0 z "},"X":{"ha":906,"x_min":13,"x_max":893,"o":"m 13 0 l 386 501 l 31 979 l 167 979 l 454 586 l 739 979 l 876 979 l 519 501 l 893 0 l 757 0 l 453 413 l 149 0 l 13 0 z "},"Y":{"ha":843,"x_min":-17,"x_max":858,"o":"m 364 0 l 364 417 l -17 979 l 117 979 l 424 514 l 731 979 l 858 979 l 479 417 l 479 0 l 364 0 z "},"Ý":{"ha":843,"x_min":-17,"x_max":858,"o":"m 364 0 l 364 417 l -17 979 l 117 979 l 424 514 l 731 979 l 858 979 l 479 417 l 479 0 l 364 0 m 379 1063 l 543 1301 l 669 1301 l 465 1063 l 379 1063 z "},"Z":{"ha":828,"x_min":60,"x_max":778,"o":"m 60 0 l 60 85 l 621 881 l 60 881 l 60 979 l 763 979 l 763 894 l 199 99 l 778 99 l 778 0 l 60 0 z "},"a":{"ha":833,"x_min":67,"x_max":736,"o":"m 375 -12 q 213 31 282 -12 q 105 156 143 75 q 67 349 67 236 q 105 543 67 463 q 213 667 143 624 q 375 710 282 710 q 539 663 469 710 q 615 569 590 625 l 628 697 l 736 697 q 728 616 732 657 q 725 536 725 575 l 725 0 l 613 0 l 613 122 q 536 35 588 69 q 375 -12 467 -12 m 397 79 q 556 148 497 79 q 614 349 614 217 q 556 551 614 482 q 397 619 497 619 q 240 551 299 619 q 181 349 181 482 q 240 148 181 217 q 397 79 299 79 z "},"á":{"ha":833,"x_min":67,"x_max":736,"o":"m 375 -12 q 213 31 282 -12 q 105 156 143 75 q 67 349 67 236 q 105 543 67 463 q 213 667 143 624 q 375 710 282 710 q 539 663 469 710 q 615 569 590 625 l 628 697 l 736 697 q 728 616 732 657 q 725 536 725 575 l 725 0 l 613 0 l 613 122 q 536 35 588 69 q 375 -12 467 -12 m 397 79 q 556 148 497 79 q 614 349 614 217 q 556 551 614 482 q 397 619 497 619 q 240 551 299 619 q 181 349 181 482 q 240 148 181 217 q 397 79 299 79 m 368 765 l 511 1046 l 632 1046 l 449 765 l 368 765 z "},"â":{"ha":833,"x_min":67,"x_max":736,"o":"m 375 -12 q 213 31 282 -12 q 105 156 143 75 q 67 349 67 236 q 105 543 67 463 q 213 667 143 624 q 375 710 282 710 q 539 663 469 710 q 615 569 590 625 l 628 697 l 736 697 q 728 616 732 657 q 725 536 725 575 l 725 0 l 613 0 l 613 122 q 536 35 588 69 q 375 -12 467 -12 m 397 79 q 556 148 497 79 q 614 349 614 217 q 556 551 614 482 q 397 619 497 619 q 240 551 299 619 q 181 349 181 482 q 240 148 181 217 q 397 79 299 79 m 203 765 l 354 1046 l 463 1046 l 614 765 l 536 765 l 408 971 l 281 765 l 203 765 z "},"ä":{"ha":833,"x_min":67,"x_max":736,"o":"m 375 -12 q 213 31 282 -12 q 105 156 143 75 q 67 349 67 236 q 105 543 67 463 q 213 667 143 624 q 375 710 282 710 q 539 663 469 710 q 615 569 590 625 l 628 697 l 736 697 q 728 616 732 657 q 725 536 725 575 l 725 0 l 613 0 l 613 122 q 536 35 588 69 q 375 -12 467 -12 m 397 79 q 556 148 497 79 q 614 349 614 217 q 556 551 614 482 q 397 619 497 619 q 240 551 299 619 q 181 349 181 482 q 240 148 181 217 q 397 79 299 79 m 469 846 l 469 965 l 589 965 l 589 846 l 469 846 m 228 846 l 228 965 l 347 965 l 347 846 l 228 846 z "},"à":{"ha":833,"x_min":67,"x_max":736,"o":"m 375 -12 q 213 31 282 -12 q 105 156 143 75 q 67 349 67 236 q 105 543 67 463 q 213 667 143 624 q 375 710 282 710 q 539 663 469 710 q 615 569 590 625 l 628 697 l 736 697 q 728 616 732 657 q 725 536 725 575 l 725 0 l 613 0 l 613 122 q 536 35 588 69 q 375 -12 467 -12 m 397 79 q 556 148 497 79 q 614 349 614 217 q 556 551 614 482 q 397 619 497 619 q 240 551 299 619 q 181 349 181 482 q 240 148 181 217 q 397 79 299 79 m 368 765 l 185 1046 l 306 1046 l 449 765 l 368 765 z "},"å":{"ha":833,"x_min":67,"x_max":736,"o":"m 375 -12 q 213 31 282 -12 q 105 156 143 75 q 67 349 67 236 q 105 543 67 463 q 213 667 143 624 q 375 710 282 710 q 539 663 469 710 q 615 569 590 625 l 628 697 l 736 697 q 728 616 732 657 q 725 536 725 575 l 725 0 l 613 0 l 613 122 q 536 35 588 69 q 375 -12 467 -12 m 397 79 q 556 148 497 79 q 614 349 614 217 q 556 551 614 482 q 397 619 497 619 q 240 551 299 619 q 181 349 181 482 q 240 148 181 217 q 397 79 299 79 m 408 760 q 325 781 363 760 q 265 838 288 801 q 243 919 243 875 q 265 1001 243 965 q 325 1059 288 1038 q 408 1081 363 1081 q 492 1059 456 1081 q 551 1001 529 1038 q 574 919 574 965 q 551 838 574 875 q 492 781 529 801 q 408 760 456 760 m 408 819 q 481 849 453 819 q 508 919 508 878 q 481 991 508 963 q 408 1019 453 1019 q 337 991 365 1019 q 308 919 308 963 q 337 849 308 878 q 408 819 365 819 z "},"ã":{"ha":833,"x_min":67,"x_max":736,"o":"m 375 -12 q 213 31 282 -12 q 105 156 143 75 q 67 349 67 236 q 105 543 67 463 q 213 667 143 624 q 375 710 282 710 q 539 663 469 710 q 615 569 590 625 l 628 697 l 736 697 q 728 616 732 657 q 725 536 725 575 l 725 0 l 613 0 l 613 122 q 536 35 588 69 q 375 -12 467 -12 m 397 79 q 556 148 497 79 q 614 349 614 217 q 556 551 614 482 q 397 619 497 619 q 240 551 299 619 q 181 349 181 482 q 240 148 181 217 q 397 79 299 79 m 222 819 l 158 824 q 206 960 165 913 q 307 1008 246 1008 q 363 994 338 1008 q 422 951 389 981 q 472 913 453 924 q 508 903 490 903 q 594 1013 579 903 l 658 1008 q 612 872 651 919 q 511 824 572 824 q 456 838 482 824 q 394 882 429 851 q 347 919 365 908 q 308 929 328 929 q 251 901 272 929 q 222 819 229 872 z "},"æ":{"ha":1225,"x_min":82,"x_max":1163,"o":"m 333 -12 q 203 16 260 -12 q 114 93 146 44 q 82 201 82 142 q 119 328 82 282 q 245 394 157 375 q 488 414 333 414 l 546 414 l 546 453 q 506 581 546 542 q 385 619 467 619 q 265 603 321 619 q 150 547 208 586 l 111 631 q 238 689 165 668 q 386 710 311 710 q 554 667 493 710 q 621 576 599 633 q 710 665 657 632 q 872 710 778 710 q 1085 622 1007 710 q 1163 381 1163 535 l 1163 343 l 656 343 q 717 153 660 221 q 893 79 776 79 q 1008 99 953 79 q 1113 160 1063 118 l 1153 81 q 1035 12 1106 36 q 890 -12 964 -12 q 688 44 767 -12 q 593 160 625 88 q 513 46 568 90 q 333 -12 440 -12 m 546 343 l 489 343 q 307 331 372 343 q 215 289 242 318 q 189 207 189 260 q 231 110 189 147 q 347 72 274 72 q 450 99 406 72 q 520 174 494 126 q 546 286 546 222 l 546 343 m 657 414 l 1064 414 q 1014 565 1060 508 q 869 626 964 626 q 714 561 771 626 q 657 414 665 507 z "},"b":{"ha":833,"x_min":110,"x_max":768,"o":"m 460 -12 q 297 36 365 -12 q 221 126 247 71 l 221 0 l 110 0 l 110 1022 l 222 1022 l 222 578 q 297 663 249 629 q 460 710 365 710 q 623 666 554 710 q 730 542 692 622 q 768 349 768 461 q 729 156 768 236 q 622 31 690 75 q 460 -12 553 -12 m 436 79 q 594 147 535 79 q 654 349 654 215 q 594 551 654 482 q 436 619 535 619 q 278 551 338 619 q 219 349 219 482 q 278 148 219 217 q 436 79 338 79 z "},"c":{"ha":688,"x_min":67,"x_max":638,"o":"m 403 -12 q 224 32 300 -12 q 108 158 149 76 q 67 353 67 240 q 108 547 67 467 q 226 668 150 626 q 403 710 301 710 q 533 686 469 710 q 638 619 596 663 l 597 539 q 506 599 556 579 q 410 618 457 618 q 242 550 301 618 q 182 351 182 482 q 242 151 182 222 q 410 81 301 81 q 505 99 456 81 q 597 158 554 117 l 638 79 q 531 11 594 35 q 403 -12 467 -12 z "},"ç":{"ha":688,"x_min":67,"x_max":638,"o":"m 403 -267 q 334 -260 367 -267 q 278 -240 301 -253 l 297 -179 q 345 -196 322 -190 q 399 -201 368 -201 q 458 -188 436 -201 q 481 -150 481 -175 q 428 -111 481 -111 q 398 -113 413 -111 q 363 -124 383 -115 l 339 -101 l 354 -10 q 225 32 282 -1 q 108 158 149 76 q 67 353 67 240 q 108 547 67 467 q 226 668 150 626 q 403 710 301 710 q 533 686 469 710 q 638 619 596 663 l 597 539 q 506 599 556 579 q 410 618 457 618 q 242 550 301 618 q 182 351 182 482 q 242 151 182 222 q 410 81 301 81 q 505 99 456 81 q 597 158 554 117 l 638 79 q 531 11 594 35 q 424 -12 478 -8 l 415 -61 q 442 -58 429 -58 q 525 -83 492 -58 q 558 -153 558 -108 q 515 -235 558 -204 q 403 -267 472 -267 z "},"d":{"ha":833,"x_min":67,"x_max":725,"o":"m 374 -12 q 213 31 282 -12 q 105 156 143 75 q 67 349 67 236 q 105 543 67 463 q 213 667 143 624 q 374 710 282 710 q 538 663 468 710 q 613 576 586 628 l 613 1022 l 725 1022 l 725 0 l 614 0 l 614 125 q 538 36 589 71 q 374 -12 468 -12 m 397 79 q 556 148 496 79 q 615 349 615 217 q 556 551 615 482 q 397 619 496 619 q 240 551 299 619 q 181 349 181 482 q 240 148 181 217 q 397 79 299 79 z "},"ð":{"ha":800,"x_min":67,"x_max":733,"o":"m 396 -12 q 223 28 297 -12 q 108 142 149 69 q 67 314 67 215 q 107 484 67 411 q 221 597 147 557 q 390 638 294 638 q 564 585 496 638 q 619 521 596 560 q 579 656 608 590 q 447 831 533 757 l 189 722 l 163 785 l 383 878 q 307 919 347 900 q 200 956 257 942 l 224 1032 q 374 983 306 1014 q 483 921 433 956 l 633 983 l 660 922 l 543 872 q 644 746 604 817 q 711 577 689 667 q 733 389 733 488 q 694 170 733 260 q 581 34 656 81 q 396 -12 506 -12 m 397 79 q 557 142 499 79 q 615 313 615 204 q 558 483 615 421 q 397 546 500 546 q 239 484 297 546 q 181 313 181 422 q 238 141 181 203 q 397 79 296 79 z "},"e":{"ha":756,"x_min":67,"x_max":693,"o":"m 419 -12 q 161 83 256 -12 q 67 347 67 178 q 108 538 67 457 q 225 665 150 619 q 397 710 300 710 q 558 669 493 710 q 658 555 624 629 q 693 379 693 481 l 693 338 l 176 338 q 242 147 178 213 q 422 79 306 79 q 540 98 485 79 q 644 160 594 117 l 683 81 q 567 12 638 36 q 419 -12 497 -12 m 179 408 l 596 408 q 546 564 592 507 q 397 626 496 626 q 235 554 293 626 q 179 408 189 496 z "},"é":{"ha":756,"x_min":67,"x_max":693,"o":"m 419 -12 q 161 83 256 -12 q 67 347 67 178 q 108 538 67 457 q 225 665 150 619 q 397 710 300 710 q 558 669 493 710 q 658 555 624 629 q 693 379 693 481 l 693 338 l 176 338 q 242 147 178 213 q 422 79 306 79 q 540 98 485 79 q 644 160 594 117 l 683 81 q 567 12 638 36 q 419 -12 497 -12 m 179 408 l 596 408 q 546 564 592 507 q 397 626 496 626 q 235 554 293 626 q 179 408 189 496 m 357 765 l 500 1046 l 621 1046 l 438 765 l 357 765 z "},"ê":{"ha":756,"x_min":67,"x_max":693,"o":"m 419 -12 q 161 83 256 -12 q 67 347 67 178 q 108 538 67 457 q 225 665 150 619 q 397 710 300 710 q 558 669 493 710 q 658 555 624 629 q 693 379 693 481 l 693 338 l 176 338 q 242 147 178 213 q 422 79 306 79 q 540 98 485 79 q 644 160 594 117 l 683 81 q 567 12 638 36 q 419 -12 497 -12 m 179 408 l 596 408 q 546 564 592 507 q 397 626 496 626 q 235 554 293 626 q 179 408 189 496 m 192 765 l 343 1046 l 451 1046 l 603 765 l 525 765 l 397 971 l 269 765 l 192 765 z "},"ë":{"ha":756,"x_min":67,"x_max":693,"o":"m 419 -12 q 161 83 256 -12 q 67 347 67 178 q 108 538 67 457 q 225 665 150 619 q 397 710 300 710 q 558 669 493 710 q 658 555 624 629 q 693 379 693 481 l 693 338 l 176 338 q 242 147 178 213 q 422 79 306 79 q 540 98 485 79 q 644 160 594 117 l 683 81 q 567 12 638 36 q 419 -12 497 -12 m 179 408 l 596 408 q 546 564 592 507 q 397 626 496 626 q 235 554 293 626 q 179 408 189 496 m 458 846 l 458 965 l 578 965 l 578 846 l 458 846 m 217 846 l 217 965 l 336 965 l 336 846 l 217 846 z "},"è":{"ha":756,"x_min":67,"x_max":693,"o":"m 419 -12 q 161 83 256 -12 q 67 347 67 178 q 108 538 67 457 q 225 665 150 619 q 397 710 300 710 q 558 669 493 710 q 658 555 624 629 q 693 379 693 481 l 693 338 l 176 338 q 242 147 178 213 q 422 79 306 79 q 540 98 485 79 q 644 160 594 117 l 683 81 q 567 12 638 36 q 419 -12 497 -12 m 179 408 l 596 408 q 546 564 592 507 q 397 626 496 626 q 235 554 293 626 q 179 408 189 496 m 357 765 l 174 1046 l 294 1046 l 438 765 l 357 765 z "},"f":{"ha":469,"x_min":10,"x_max":483,"o":"m 146 0 l 146 610 l 10 610 l 10 697 l 146 697 l 146 785 q 206 965 146 903 q 376 1028 265 1028 q 434 1023 404 1028 q 483 1010 464 1018 l 483 917 q 442 928 467 924 q 393 933 418 933 q 319 916 350 933 q 274 864 289 899 q 258 775 258 829 l 258 697 l 453 697 l 453 610 l 258 610 l 258 0 l 146 0 z "},"g":{"ha":838,"x_min":67,"x_max":742,"o":"m 417 -310 q 250 -287 326 -310 q 113 -219 174 -265 l 146 -135 q 231 -183 189 -165 q 317 -210 272 -201 q 411 -219 361 -219 q 567 -165 514 -219 q 619 -11 619 -111 l 619 154 q 542 64 594 99 q 379 15 472 15 q 213 58 283 15 q 105 178 143 100 q 67 364 67 257 q 105 547 67 469 q 213 667 143 625 q 379 710 283 710 q 543 663 474 710 q 621 567 596 626 l 632 697 l 742 697 q 733 616 736 657 q 731 536 731 575 l 731 4 q 651 -231 731 -151 q 417 -310 571 -310 m 400 107 q 560 174 501 107 q 618 364 618 242 q 560 553 618 486 q 400 619 501 619 q 240 553 300 619 q 181 364 181 486 q 240 174 181 242 q 400 107 300 107 z "},"h":{"ha":814,"x_min":110,"x_max":708,"o":"m 110 0 l 110 1022 l 222 1022 l 222 583 q 303 668 251 636 q 461 710 371 710 q 647 642 586 710 q 708 439 708 575 l 708 0 l 596 0 l 596 432 q 558 574 596 529 q 435 618 519 618 q 280 558 338 618 q 222 401 222 499 l 222 0 l 110 0 z "},"i":{"ha":331,"x_min":96,"x_max":235,"o":"m 110 0 l 110 697 l 222 697 l 222 0 l 110 0 m 96 856 l 96 982 l 235 982 l 235 856 l 96 856 z "},"ı":{"ha":331,"x_min":110,"x_max":222,"o":"m 110 0 l 110 697 l 222 697 l 222 0 l 110 0 z "},"í":{"ha":331,"x_min":110,"x_max":389,"o":"m 110 0 l 110 697 l 222 697 l 222 0 l 110 0 m 125 765 l 268 1046 l 389 1046 l 206 765 l 125 765 z "},"î":{"ha":331,"x_min":-40,"x_max":371,"o":"m 110 0 l 110 697 l 222 697 l 222 0 l 110 0 m -40 765 l 111 1046 l 219 1046 l 371 765 l 293 765 l 165 971 l 38 765 l -40 765 z "},"ï":{"ha":331,"x_min":-15,"x_max":347,"o":"m 110 0 l 110 697 l 222 697 l 222 0 l 110 0 m 226 846 l 226 965 l 346 965 l 346 846 l 226 846 m -15 846 l -15 965 l 104 965 l 104 846 l -15 846 z "},"ì":{"ha":331,"x_min":-57,"x_max":222,"o":"m 110 0 l 110 697 l 222 697 l 222 0 l 110 0 m 125 765 l -58 1046 l 63 1046 l 206 765 l 125 765 z "},"j":{"ha":331,"x_min":-79,"x_max":242,"o":"m 18 -306 q -31 -301 -1 -306 q -79 -289 -60 -296 l -79 -194 q -40 -205 -62 -200 q 1 -210 -18 -210 q 88 -173 60 -210 q 117 -53 117 -136 l 117 697 l 229 697 l 229 -64 q 177 -244 229 -183 q 18 -306 125 -306 m 104 856 l 104 982 l 242 982 l 242 856 l 104 856 z "},"k":{"ha":715,"x_min":110,"x_max":726,"o":"m 110 0 l 110 1022 l 222 1022 l 222 388 l 225 388 l 549 697 l 690 697 l 340 364 l 726 0 l 581 0 l 225 328 l 222 328 l 222 0 l 110 0 z "},"l":{"ha":331,"x_min":110,"x_max":222,"o":"m 110 0 l 110 1022 l 222 1022 l 222 0 l 110 0 z "},"m":{"ha":1219,"x_min":99,"x_max":1115,"o":"m 110 0 l 110 536 q 106 616 110 575 q 99 697 103 657 l 207 697 l 218 578 q 293 667 244 633 q 439 710 353 710 q 582 668 526 710 q 647 569 626 635 q 728 664 675 628 q 883 710 794 710 q 1057 644 999 710 q 1115 436 1115 578 l 1115 0 l 1003 0 l 1003 429 q 968 573 1003 528 q 857 618 933 618 q 719 558 769 618 q 668 396 668 497 l 668 0 l 556 0 l 556 429 q 521 573 556 528 q 410 618 486 618 q 272 558 322 618 q 222 396 222 497 l 222 0 l 110 0 z "},"n":{"ha":814,"x_min":99,"x_max":708,"o":"m 110 0 l 110 536 q 106 616 110 575 q 99 697 103 657 l 207 697 l 218 575 q 303 668 249 633 q 458 710 369 710 q 645 644 582 710 q 708 436 708 578 l 708 0 l 596 0 l 596 429 q 556 573 596 528 q 433 618 517 618 q 279 558 336 618 q 222 399 222 499 l 222 0 l 110 0 z "},"ñ":{"ha":814,"x_min":99,"x_max":708,"o":"m 110 0 l 110 536 q 106 616 110 575 q 99 697 103 657 l 207 697 l 218 575 q 303 668 249 633 q 458 710 369 710 q 645 644 582 710 q 708 436 708 578 l 708 0 l 596 0 l 596 429 q 556 573 596 528 q 433 618 517 618 q 279 558 336 618 q 222 399 222 499 l 222 0 l 110 0 m 219 819 l 156 824 q 203 960 163 913 q 304 1008 243 1008 q 360 994 335 1008 q 419 951 386 981 q 469 913 450 924 q 506 903 488 903 q 592 1013 576 903 l 656 1008 q 609 872 649 919 q 508 824 569 824 q 453 838 479 824 q 392 882 426 851 q 344 919 363 908 q 306 929 325 929 q 248 901 269 929 q 219 819 226 872 z "},"o":{"ha":793,"x_min":67,"x_max":728,"o":"m 396 -12 q 222 31 296 -12 q 107 156 147 75 q 67 349 67 238 q 107 542 67 461 q 222 666 147 622 q 396 710 296 710 q 572 666 497 710 q 687 542 646 622 q 728 349 728 461 q 687 156 728 238 q 572 31 646 75 q 396 -12 497 -12 m 396 79 q 554 148 496 79 q 613 349 613 217 q 553 551 613 482 q 396 619 494 619 q 239 551 297 619 q 181 349 181 482 q 239 148 181 217 q 396 79 297 79 z "},"ó":{"ha":793,"x_min":67,"x_max":728,"o":"m 396 -12 q 222 31 296 -12 q 107 156 147 75 q 67 349 67 238 q 107 542 67 461 q 222 666 147 622 q 396 710 296 710 q 572 666 497 710 q 687 542 646 622 q 728 349 728 461 q 687 156 728 238 q 572 31 646 75 q 396 -12 497 -12 m 396 79 q 554 148 496 79 q 613 349 613 217 q 553 551 613 482 q 396 619 494 619 q 239 551 297 619 q 181 349 181 482 q 239 148 181 217 q 396 79 297 79 m 357 765 l 500 1046 l 621 1046 l 438 765 l 357 765 z "},"ô":{"ha":793,"x_min":67,"x_max":728,"o":"m 396 -12 q 222 31 296 -12 q 107 156 147 75 q 67 349 67 238 q 107 542 67 461 q 222 666 147 622 q 396 710 296 710 q 572 666 497 710 q 687 542 646 622 q 728 349 728 461 q 687 156 728 238 q 572 31 646 75 q 396 -12 497 -12 m 396 79 q 554 148 496 79 q 613 349 613 217 q 553 551 613 482 q 396 619 494 619 q 239 551 297 619 q 181 349 181 482 q 239 148 181 217 q 396 79 297 79 m 192 765 l 343 1046 l 451 1046 l 603 765 l 525 765 l 397 971 l 269 765 l 192 765 z "},"ö":{"ha":793,"x_min":67,"x_max":728,"o":"m 396 -12 q 222 31 296 -12 q 107 156 147 75 q 67 349 67 238 q 107 542 67 461 q 222 666 147 622 q 396 710 296 710 q 572 666 497 710 q 687 542 646 622 q 728 349 728 461 q 687 156 728 238 q 572 31 646 75 q 396 -12 497 -12 m 396 79 q 554 148 496 79 q 613 349 613 217 q 553 551 613 482 q 396 619 494 619 q 239 551 297 619 q 181 349 181 482 q 239 148 181 217 q 396 79 297 79 m 458 846 l 458 965 l 578 965 l 578 846 l 458 846 m 217 846 l 217 965 l 336 965 l 336 846 l 217 846 z "},"ò":{"ha":793,"x_min":67,"x_max":728,"o":"m 396 -12 q 222 31 296 -12 q 107 156 147 75 q 67 349 67 238 q 107 542 67 461 q 222 666 147 622 q 396 710 296 710 q 572 666 497 710 q 687 542 646 622 q 728 349 728 461 q 687 156 728 238 q 572 31 646 75 q 396 -12 497 -12 m 396 79 q 554 148 496 79 q 613 349 613 217 q 553 551 613 482 q 396 619 494 619 q 239 551 297 619 q 181 349 181 482 q 239 148 181 217 q 396 79 297 79 m 357 765 l 174 1046 l 294 1046 l 438 765 l 357 765 z "},"ø":{"ha":793,"x_min":67,"x_max":728,"o":"m 396 -12 q 246 18 313 -12 l 204 -54 l 144 -17 l 186 56 q 107 157 138 96 q 67 349 67 238 q 107 542 67 461 q 222 666 147 622 q 396 710 296 710 q 549 678 482 710 l 592 753 l 653 715 l 608 640 q 688 542 657 600 q 728 349 728 461 q 687 156 728 238 q 572 31 646 75 q 396 -12 497 -12 m 238 143 l 501 596 q 396 619 456 619 q 233 549 292 619 q 174 350 174 479 q 233 150 174 219 q 238 143 235 146 m 396 79 q 560 149 500 79 q 619 350 619 219 q 560 550 619 479 q 557 551 558 550 l 294 100 q 396 79 339 79 z "},"õ":{"ha":793,"x_min":67,"x_max":728,"o":"m 396 -12 q 222 31 296 -12 q 107 156 147 75 q 67 349 67 238 q 107 542 67 461 q 222 666 147 622 q 396 710 296 710 q 572 666 497 710 q 687 542 646 622 q 728 349 728 461 q 687 156 728 238 q 572 31 646 75 q 396 -12 497 -12 m 396 79 q 554 148 496 79 q 613 349 613 217 q 553 551 613 482 q 396 619 494 619 q 239 551 297 619 q 181 349 181 482 q 239 148 181 217 q 396 79 297 79 m 211 819 l 147 824 q 194 960 154 913 q 296 1008 235 1008 q 352 994 326 1008 q 411 951 378 981 q 460 913 442 924 q 497 903 479 903 q 583 1013 568 903 l 647 1008 q 601 872 640 919 q 500 824 561 824 q 444 838 471 824 q 383 882 418 851 q 335 919 354 908 q 297 929 317 929 q 240 901 261 929 q 211 819 218 872 z "},"œ":{"ha":1297,"x_min":67,"x_max":1235,"o":"m 396 -12 q 222 31 296 -12 q 107 156 147 75 q 67 350 67 238 q 107 542 67 461 q 222 667 147 624 q 396 710 296 710 q 581 656 504 710 q 671 540 639 613 q 764 654 706 611 q 944 710 840 710 q 1158 622 1081 710 q 1235 381 1235 535 l 1235 339 l 726 339 q 789 147 729 213 q 969 79 851 79 q 1081 99 1028 79 q 1185 160 1135 118 l 1225 81 q 1152 29 1194 50 q 1063 -2 1110 8 q 972 -12 1017 -12 q 768 43 849 -12 q 669 160 704 86 q 579 43 638 86 q 396 -12 504 -12 m 397 79 q 556 148 497 79 q 614 349 614 217 q 556 551 614 482 q 397 619 497 619 q 240 551 299 619 q 181 349 181 482 q 240 148 181 217 q 397 79 299 79 m 729 410 l 1136 410 q 1086 565 1132 507 q 942 626 1036 626 q 783 554 840 626 q 729 410 739 497 z "},"p":{"ha":833,"x_min":99,"x_max":768,"o":"m 110 -300 l 110 536 q 106 616 110 575 q 99 697 103 657 l 207 697 l 219 569 q 296 663 244 625 q 458 710 364 710 q 622 667 553 710 q 729 543 690 624 q 768 349 768 463 q 730 156 768 236 q 622 31 692 75 q 458 -12 553 -12 q 297 35 365 -12 q 222 122 247 69 l 222 -300 l 110 -300 m 436 79 q 595 148 536 79 q 654 349 654 217 q 595 551 654 482 q 436 619 536 619 q 278 551 338 619 q 219 349 219 482 q 278 148 219 217 q 436 79 338 79 z "},"þ":{"ha":833,"x_min":110,"x_max":768,"o":"m 110 -300 l 110 1022 l 222 1022 l 222 576 q 297 663 247 628 q 460 710 365 710 q 623 667 554 710 q 730 543 692 624 q 768 349 768 463 q 730 156 768 236 q 623 31 692 75 q 460 -12 554 -12 q 297 35 365 -12 q 222 122 247 69 l 222 -300 l 110 -300 m 438 79 q 595 148 536 79 q 654 349 654 217 q 595 551 654 482 q 438 619 536 619 q 279 551 339 619 q 219 349 219 482 q 279 148 219 217 q 438 79 339 79 z "},"q":{"ha":833,"x_min":67,"x_max":736,"o":"m 613 -300 l 613 122 q 536 35 588 69 q 375 -12 467 -12 q 213 31 282 -12 q 105 156 143 75 q 67 349 67 236 q 105 543 67 463 q 213 667 143 624 q 375 710 282 710 q 539 663 469 710 q 615 569 590 625 l 628 697 l 736 697 q 728 616 732 657 q 725 536 725 575 l 725 -300 l 613 -300 m 397 79 q 556 148 497 79 q 614 349 614 217 q 556 551 614 482 q 397 619 497 619 q 240 551 299 619 q 181 349 181 482 q 240 148 181 217 q 397 79 299 79 z "},"r":{"ha":504,"x_min":99,"x_max":497,"o":"m 107 0 l 107 529 q 105 614 107 571 q 99 697 103 657 l 207 697 l 217 575 q 250 629 231 606 q 332 690 285 669 q 431 710 379 710 q 467 708 451 710 q 497 701 483 707 l 496 601 q 458 610 475 608 q 418 613 440 613 q 312 583 357 613 q 244 508 267 554 q 221 411 221 463 l 221 0 l 107 0 z "},"s":{"ha":689,"x_min":67,"x_max":618,"o":"m 342 -12 q 186 10 258 -12 q 67 75 114 33 l 106 154 q 217 94 157 114 q 343 75 278 75 q 469 105 426 75 q 511 188 511 135 q 484 252 511 228 q 396 290 457 276 l 267 317 q 133 383 178 336 q 89 501 89 429 q 121 609 89 563 q 214 683 153 656 q 357 710 275 710 q 498 687 433 710 q 606 621 563 664 l 565 543 q 470 603 524 583 q 360 624 417 624 q 237 591 278 624 q 196 506 196 558 q 222 440 196 465 q 301 401 247 414 l 431 375 q 572 310 525 354 q 618 193 618 267 q 583 84 618 131 q 487 13 549 38 q 342 -12 425 -12 z "},"ß":{"ha":881,"x_min":110,"x_max":836,"o":"m 110 0 l 110 685 q 192 942 110 853 q 440 1031 275 1031 q 588 1003 526 1031 q 683 922 650 975 q 717 796 717 869 q 665 632 717 704 q 508 518 619 567 q 685 449 614 486 q 800 348 764 404 q 836 221 836 292 q 803 97 836 149 q 708 16 769 44 q 564 -12 647 -12 q 465 -2 510 -12 q 381 27 419 8 q 311 74 343 46 l 347 153 q 451 94 400 114 q 564 75 503 75 q 684 112 642 75 q 726 217 726 149 q 697 309 726 267 q 594 390 668 351 q 383 463 519 428 l 383 553 q 521 622 471 585 q 591 701 571 658 q 611 794 611 744 q 567 901 611 861 q 442 942 522 942 q 275 881 328 942 q 222 697 222 819 l 222 0 l 110 0 z "},"t":{"ha":486,"x_min":10,"x_max":458,"o":"m 357 -12 q 200 47 254 -12 q 146 225 146 106 l 146 610 l 10 610 l 10 697 l 146 697 l 146 888 l 258 919 l 258 697 l 458 697 l 458 610 l 258 610 l 258 238 q 287 119 258 154 q 372 83 315 83 q 419 88 399 83 q 457 100 440 93 l 457 6 q 410 -8 438 -3 q 357 -12 383 -12 z "},"u":{"ha":801,"x_min":106,"x_max":693,"o":"m 356 -12 q 169 56 232 -12 q 106 264 106 124 l 106 697 l 218 697 l 218 267 q 257 126 218 171 q 378 81 296 81 q 525 140 469 81 q 581 300 581 200 l 581 697 l 693 697 l 693 0 l 583 0 l 583 117 q 508 32 556 64 q 356 -12 443 -12 z "},"ú":{"ha":801,"x_min":106,"x_max":693,"o":"m 356 -12 q 169 56 232 -12 q 106 264 106 124 l 106 697 l 218 697 l 218 267 q 257 126 218 171 q 378 81 296 81 q 525 140 469 81 q 581 300 581 200 l 581 697 l 693 697 l 693 0 l 583 0 l 583 117 q 508 32 556 64 q 356 -12 443 -12 m 361 767 l 504 1047 l 625 1047 l 442 767 l 361 767 z "},"û":{"ha":801,"x_min":106,"x_max":693,"o":"m 356 -12 q 169 56 232 -12 q 106 264 106 124 l 106 697 l 218 697 l 218 267 q 257 126 218 171 q 378 81 296 81 q 525 140 469 81 q 581 300 581 200 l 581 697 l 693 697 l 693 0 l 583 0 l 583 117 q 508 32 556 64 q 356 -12 443 -12 m 196 767 l 347 1047 l 456 1047 l 607 767 l 529 767 l 401 972 l 274 767 l 196 767 z "},"ü":{"ha":801,"x_min":106,"x_max":693,"o":"m 356 -12 q 169 56 232 -12 q 106 264 106 124 l 106 697 l 218 697 l 218 267 q 257 126 218 171 q 378 81 296 81 q 525 140 469 81 q 581 300 581 200 l 581 697 l 693 697 l 693 0 l 583 0 l 583 117 q 508 32 556 64 q 356 -12 443 -12 m 463 847 l 463 967 l 582 967 l 582 847 l 463 847 m 221 847 l 221 967 l 340 967 l 340 847 l 221 847 z "},"ù":{"ha":801,"x_min":106,"x_max":693,"o":"m 356 -12 q 169 56 232 -12 q 106 264 106 124 l 106 697 l 218 697 l 218 267 q 257 126 218 171 q 378 81 296 81 q 525 140 469 81 q 581 300 581 200 l 581 697 l 693 697 l 693 0 l 583 0 l 583 117 q 508 32 556 64 q 356 -12 443 -12 m 361 767 l 178 1047 l 299 1047 l 442 767 l 361 767 z "},"v":{"ha":738,"x_min":17,"x_max":721,"o":"m 315 0 l 17 697 l 139 697 l 371 129 l 604 697 l 721 697 l 422 0 l 315 0 z "},"w":{"ha":1207,"x_min":38,"x_max":1169,"o":"m 296 0 l 38 697 l 157 697 l 354 133 l 558 697 l 656 697 l 856 132 l 1056 697 l 1169 697 l 910 0 l 801 0 l 604 547 l 406 0 l 296 0 z "},"x":{"ha":743,"x_min":15,"x_max":726,"o":"m 15 0 l 306 360 l 32 697 l 168 697 l 371 439 l 574 697 l 708 697 l 438 360 l 726 0 l 589 0 l 371 278 l 150 0 l 15 0 z "},"y":{"ha":738,"x_min":17,"x_max":721,"o":"m 82 -315 l 56 -222 q 165 -187 121 -207 q 238 -133 208 -167 q 288 -50 267 -100 l 313 6 l 17 697 l 139 697 l 372 129 l 603 697 l 721 697 l 399 -58 q 338 -170 371 -125 q 266 -244 304 -215 q 182 -289 228 -272 q 82 -315 136 -306 z "},"ý":{"ha":738,"x_min":17,"x_max":721,"o":"m 82 -315 l 56 -222 q 165 -187 121 -207 q 238 -133 208 -167 q 288 -50 267 -100 l 313 6 l 17 697 l 139 697 l 372 129 l 603 697 l 721 697 l 399 -58 q 338 -170 371 -125 q 266 -244 304 -215 q 182 -289 228 -272 q 82 -315 136 -306 m 328 765 l 471 1046 l 592 1046 l 408 765 l 328 765 z "},"ÿ":{"ha":738,"x_min":17,"x_max":721,"o":"m 82 -315 l 56 -222 q 165 -187 121 -207 q 238 -133 208 -167 q 288 -50 267 -100 l 313 6 l 17 697 l 139 697 l 372 129 l 603 697 l 721 697 l 399 -58 q 338 -170 371 -125 q 266 -244 304 -215 q 182 -289 228 -272 q 82 -315 136 -306 m 429 846 l 429 965 l 549 965 l 549 846 l 429 846 m 188 846 l 188 965 l 307 965 l 307 846 l 188 846 z "},"z":{"ha":721,"x_min":69,"x_max":660,"o":"m 69 0 l 69 75 l 515 610 l 69 610 l 69 697 l 644 697 l 644 622 l 196 88 l 660 88 l 660 0 l 69 0 z "},"ª":{"ha":453,"x_min":33,"x_max":399,"o":"m 185 571 q 76 607 119 571 q 33 696 33 643 q 91 788 33 760 q 249 815 149 815 l 321 815 l 321 838 q 296 906 321 883 q 221 929 271 929 q 144 919 183 929 q 74 889 106 910 l 51 947 q 133 981 86 969 q 224 992 179 992 q 399 835 399 992 l 399 578 l 324 578 l 324 653 l 321 653 q 265 590 297 610 q 185 571 232 571 m 321 765 l 251 765 q 147 749 181 765 q 113 697 113 732 q 134 649 113 669 q 201 629 156 629 q 288 663 254 629 q 321 758 321 697 l 321 765 z "},"º":{"ha":474,"x_min":33,"x_max":440,"o":"m 238 571 q 133 597 178 571 q 60 671 88 624 q 33 782 33 718 q 60 893 33 846 q 133 966 88 940 q 238 992 178 992 q 342 966 296 992 q 414 893 388 940 q 440 782 440 846 q 414 671 440 718 q 342 597 388 624 q 238 571 297 571 m 238 635 q 327 672 294 635 q 360 782 360 710 q 327 890 360 853 q 238 928 294 928 q 147 891 181 928 q 114 782 114 854 q 147 672 114 710 q 238 635 181 635 z "},"¹":{"ha":528,"x_min":114,"x_max":463,"o":"m 114 392 l 114 474 l 249 474 l 249 871 l 125 797 l 125 892 l 271 979 l 343 979 l 343 474 l 463 474 l 463 392 l 114 392 z "},"²":{"ha":528,"x_min":54,"x_max":475,"o":"m 72 392 l 72 461 l 272 664 q 329 741 311 707 q 347 813 347 775 q 244 903 347 903 q 161 887 204 903 q 85 842 118 871 l 54 914 q 145 965 92 946 q 261 985 199 985 q 399 941 349 985 q 449 822 449 897 q 426 729 449 775 q 353 633 403 683 l 194 474 l 475 474 l 475 392 l 72 392 z "},"³":{"ha":528,"x_min":44,"x_max":467,"o":"m 258 386 q 138 404 193 386 q 44 456 82 422 l 74 525 q 155 481 108 497 q 253 465 201 465 q 339 488 306 465 q 372 561 372 511 q 338 630 372 608 q 247 651 304 651 l 139 651 l 139 726 l 232 726 q 323 750 290 726 q 356 821 356 774 q 327 884 356 861 q 246 907 299 907 q 158 890 203 907 q 81 843 113 874 l 49 915 q 141 966 86 947 q 258 985 196 985 q 399 944 347 985 q 450 833 450 903 q 415 739 450 775 q 353 694 388 710 q 429 653 399 683 q 467 553 467 615 q 408 430 467 474 q 258 386 349 386 z "},"⁴":{"ha":528,"x_min":46,"x_max":503,"o":"m 325 392 l 325 510 l 46 510 l 46 579 l 335 979 l 414 979 l 414 586 l 503 586 l 503 510 l 414 510 l 414 392 l 325 392 m 326 586 l 326 856 l 132 586 l 326 586 z "},"⁄":{"ha":243,"x_min":-226,"x_max":469,"o":"m -126 -12 l -226 -12 l 369 992 l 469 992 l -126 -12 z "},"½":{"ha":1306,"x_min":114,"x_max":1253,"o":"m 114 392 l 114 474 l 249 474 l 249 871 l 125 797 l 125 892 l 271 979 l 343 979 l 343 474 l 463 474 l 463 392 l 114 392 m 408 -12 l 308 -12 l 904 992 l 1004 992 l 408 -12 m 850 0 l 850 69 l 1050 272 q 1107 349 1089 315 q 1125 421 1125 383 q 1022 511 1125 511 q 939 495 982 511 q 863 450 896 479 l 832 522 q 923 574 869 554 q 1039 593 976 593 q 1176 549 1126 593 q 1226 431 1226 506 q 1203 338 1226 383 q 1131 242 1181 292 l 972 82 l 1253 82 l 1253 0 l 850 0 z "},"¼":{"ha":1244,"x_min":114,"x_max":1219,"o":"m 114 392 l 114 474 l 249 474 l 249 871 l 125 797 l 125 892 l 271 979 l 343 979 l 343 474 l 463 474 l 463 392 l 114 392 m 408 -12 l 308 -12 l 904 992 l 1004 992 l 408 -12 m 1042 0 l 1042 118 l 763 118 l 763 188 l 1051 588 l 1131 588 l 1131 194 l 1219 194 l 1219 118 l 1131 118 l 1131 0 l 1042 0 m 1043 194 l 1043 464 l 849 194 l 1043 194 z "},"¾":{"ha":1244,"x_min":44,"x_max":1219,"o":"m 258 386 q 138 404 193 386 q 44 456 82 422 l 74 525 q 155 481 108 497 q 253 465 201 465 q 339 488 306 465 q 372 561 372 511 q 338 630 372 608 q 247 651 304 651 l 139 651 l 139 726 l 232 726 q 323 750 290 726 q 356 821 356 774 q 327 884 356 861 q 246 907 299 907 q 158 890 203 907 q 81 843 113 874 l 49 915 q 141 966 86 947 q 258 985 196 985 q 399 944 347 985 q 450 833 450 903 q 415 739 450 775 q 353 694 388 710 q 429 653 399 683 q 467 553 467 615 q 408 430 467 474 q 258 386 349 386 m 408 -12 l 308 -12 l 904 992 l 1004 992 l 408 -12 m 1042 0 l 1042 118 l 763 118 l 763 188 l 1051 588 l 1131 588 l 1131 194 l 1219 194 l 1219 118 l 1131 118 l 1131 0 l 1042 0 m 1043 194 l 1043 464 l 849 194 l 1043 194 z "},".":{"ha":317,"x_min":88,"x_max":229,"o":"m 88 0 l 88 142 l 229 142 l 229 0 l 88 0 z "},",":{"ha":317,"x_min":88,"x_max":229,"o":"m 146 -158 l 93 -118 q 143 -44 131 -79 q 153 0 150 -22 l 88 0 l 88 142 l 229 142 l 229 42 q 211 -63 229 -14 q 146 -158 193 -112 z "},":":{"ha":317,"x_min":88,"x_max":229,"o":"m 88 556 l 88 697 l 229 697 l 229 556 l 88 556 m 88 0 l 88 142 l 229 142 l 229 0 l 88 0 z "},";":{"ha":317,"x_min":88,"x_max":229,"o":"m 146 -158 l 93 -118 q 143 -44 131 -79 q 153 0 150 -22 l 88 0 l 88 142 l 229 142 l 229 42 q 211 -63 229 -14 q 146 -158 193 -112 m 88 556 l 88 697 l 229 697 l 229 556 l 88 556 z "},"…":{"ha":953,"x_min":88,"x_max":865,"o":"m 406 0 l 406 142 l 547 142 l 547 0 l 406 0 m 724 0 l 724 142 l 865 142 l 865 0 l 724 0 m 88 0 l 88 142 l 229 142 l 229 0 l 88 0 z "},"!":{"ha":317,"x_min":88,"x_max":229,"o":"m 124 256 l 89 979 l 228 979 l 193 256 l 124 256 m 88 0 l 88 142 l 229 142 l 229 0 l 88 0 z "},"¡":{"ha":317,"x_min":88,"x_max":229,"o":"m 89 -250 l 124 443 l 193 443 l 228 -250 l 89 -250 m 88 556 l 88 697 l 229 697 l 229 556 l 88 556 z "},"?":{"ha":622,"x_min":99,"x_max":576,"o":"m 239 256 l 239 296 q 266 428 239 367 q 363 568 293 490 q 439 673 417 628 q 461 765 461 718 q 418 859 461 825 q 299 893 375 893 q 194 878 244 893 q 99 839 144 864 l 99 943 q 199 979 144 967 q 310 992 254 992 q 449 966 389 992 q 542 892 508 940 q 576 775 576 844 q 563 690 576 731 q 519 608 549 649 q 444 518 490 567 q 349 397 376 449 q 315 290 321 344 l 311 256 l 239 256 m 203 0 l 203 142 l 346 142 l 346 0 l 203 0 z "},"¿":{"ha":622,"x_min":44,"x_max":522,"o":"m 313 -290 q 173 -264 233 -290 q 78 -188 113 -237 q 44 -72 44 -139 q 57 13 44 -26 q 99 92 69 51 q 176 183 128 133 q 273 306 246 254 q 307 413 300 357 l 311 442 l 383 442 l 383 406 q 356 274 383 336 q 258 135 329 211 q 182 29 204 74 q 160 -64 160 -15 q 203 -158 160 -124 q 324 -192 247 -192 q 428 -177 378 -192 q 522 -137 478 -162 l 522 -242 q 423 -277 478 -264 q 313 -290 368 -290 m 418 697 l 418 554 l 276 554 l 276 697 l 418 697 z "},"·":{"ha":321,"x_min":89,"x_max":232,"o":"m 89 310 l 89 451 l 232 451 l 232 310 l 89 310 z "},"•":{"ha":735,"x_min":114,"x_max":621,"o":"m 368 124 q 242 156 300 124 q 149 246 183 189 q 114 372 114 303 q 147 493 114 436 q 237 585 179 550 q 368 621 294 621 q 493 588 436 621 q 585 500 550 556 q 621 372 621 444 q 587 247 621 304 q 495 157 553 190 q 368 124 438 124 z "},"*":{"ha":631,"x_min":43,"x_max":588,"o":"m 190 506 l 121 556 l 257 732 l 43 794 l 71 876 l 279 801 l 271 1022 l 358 1022 l 351 800 l 561 876 l 588 794 l 375 732 l 511 556 l 440 506 l 317 690 l 190 506 z "},"#":{"ha":833,"x_min":42,"x_max":792,"o":"m 119 0 l 171 253 l 42 253 l 42 335 l 185 335 l 251 656 l 71 656 l 71 738 l 267 738 l 315 979 l 404 979 l 356 738 l 575 738 l 624 979 l 713 979 l 664 738 l 792 738 l 792 656 l 647 656 l 582 335 l 764 335 l 764 253 l 567 253 l 515 0 l 425 0 l 476 253 l 258 253 l 210 0 l 119 0 m 275 335 l 493 335 l 558 656 l 339 656 l 275 335 z "},"/":{"ha":397,"x_min":-32,"x_max":429,"o":"m 65 -76 l -32 -76 l 332 1039 l 429 1039 l 65 -76 z "},"\\":{"ha":397,"x_min":-32,"x_max":429,"o":"m 332 -76 l -32 1039 l 65 1039 l 429 -76 l 332 -76 z "},"(":{"ha":442,"x_min":143,"x_max":404,"o":"m 310 -250 q 215 -47 253 -146 q 160 154 178 53 q 143 365 143 256 q 160 576 143 475 q 215 777 178 678 q 310 979 253 876 l 404 979 q 297 672 333 824 q 260 365 260 519 q 297 59 260 213 q 404 -250 333 -94 l 310 -250 z "},")":{"ha":442,"x_min":38,"x_max":299,"o":"m 131 -250 l 38 -250 q 145 58 108 -94 q 182 364 182 211 q 145 671 182 518 q 38 979 108 824 l 131 979 q 227 777 190 876 q 281 576 264 678 q 299 364 299 474 q 281 153 299 256 q 227 -48 264 51 q 131 -250 190 -147 z "},"{":{"ha":493,"x_min":64,"x_max":482,"o":"m 346 -250 q 242 -213 278 -250 q 206 -107 206 -176 l 206 207 q 183 290 206 265 q 104 319 160 315 l 64 322 l 64 408 l 104 411 q 182 439 158 414 q 206 522 206 464 l 206 836 q 242 943 206 907 q 346 979 278 979 l 482 979 l 482 890 l 379 890 q 332 874 347 890 q 317 826 317 858 l 317 511 q 299 435 317 469 q 253 382 282 400 q 214 365 235 369 q 253 349 235 361 q 299 296 282 329 q 317 219 317 263 l 317 -97 q 332 -145 317 -129 q 379 -161 347 -161 l 482 -161 l 482 -250 l 346 -250 z "},"}":{"ha":493,"x_min":11,"x_max":429,"o":"m 11 -250 l 11 -161 l 114 -161 q 161 -145 146 -161 q 176 -97 176 -129 l 176 218 q 194 295 176 261 q 240 349 211 329 q 279 364 258 360 q 240 381 258 368 q 194 435 211 400 q 176 511 176 469 l 176 826 q 161 874 176 858 q 114 890 146 890 l 11 890 l 11 979 l 147 979 q 251 943 215 979 q 288 836 288 907 l 288 522 q 310 440 288 465 q 389 411 333 414 l 429 408 l 429 321 l 389 318 q 311 290 335 315 q 288 207 288 265 l 288 -107 q 251 -213 288 -176 q 147 -250 215 -250 l 11 -250 z "},"[":{"ha":440,"x_min":147,"x_max":429,"o":"m 147 -250 l 147 979 l 429 979 l 429 890 l 258 890 l 258 -161 l 429 -161 l 429 -250 l 147 -250 z "},"]":{"ha":440,"x_min":13,"x_max":292,"o":"m 13 -250 l 13 -161 l 181 -161 l 181 890 l 13 890 l 13 979 l 292 979 l 292 -250 l 13 -250 z "},"-":{"ha":594,"x_min":100,"x_max":496,"o":"m 100 335 l 100 428 l 496 428 l 496 335 l 100 335 z "},"­":{"ha":594,"x_min":100,"x_max":496,"o":"m 100 335 l 100 428 l 496 428 l 496 335 l 100 335 z "},"–":{"ha":701,"x_min":0,"x_max":701,"o":"m 0 344 l 0 418 l 701 418 l 701 344 l 0 344 z "},"—":{"ha":1403,"x_min":0,"x_max":1403,"o":"m 0 344 l 0 418 l 1403 418 l 1403 344 l 0 344 z "},"_":{"ha":701,"x_min":11,"x_max":690,"o":"m 11 -74 l 11 0 l 690 0 l 690 -74 l 11 -74 z "},"‚":{"ha":317,"x_min":89,"x_max":231,"o":"m 147 -158 l 94 -118 q 142 -50 128 -83 q 154 0 151 -28 l 89 0 l 89 142 l 231 142 l 231 42 q 211 -67 231 -19 q 147 -158 192 -115 z "},"„":{"ha":550,"x_min":89,"x_max":464,"o":"m 147 -158 l 94 -118 q 142 -50 128 -83 q 154 0 151 -28 l 89 0 l 89 142 l 231 142 l 231 42 q 211 -67 231 -19 q 147 -158 192 -115 m 381 -158 l 328 -118 q 375 -50 361 -83 q 388 0 385 -28 l 322 0 l 322 142 l 464 142 l 464 42 q 444 -67 464 -19 q 381 -158 425 -115 z "},"“":{"ha":550,"x_min":88,"x_max":463,"o":"m 88 688 l 88 786 q 106 892 88 843 q 171 988 125 940 l 225 947 q 176 875 189 907 q 164 829 167 853 l 229 829 l 229 688 l 88 688 m 321 688 l 321 786 q 340 892 321 843 q 404 988 358 940 l 458 947 q 410 875 422 907 q 397 829 400 853 l 463 829 l 463 688 l 321 688 z "},"”":{"ha":550,"x_min":89,"x_max":464,"o":"m 147 679 l 94 719 q 144 793 132 758 q 154 838 151 815 l 89 838 l 89 979 l 231 979 l 231 879 q 213 775 231 824 q 147 679 194 726 m 381 679 l 328 719 q 378 793 365 758 q 388 838 385 815 l 322 838 l 322 979 l 464 979 l 464 879 q 446 775 464 824 q 381 679 428 726 z "},"‘":{"ha":317,"x_min":88,"x_max":229,"o":"m 88 688 l 88 786 q 106 892 88 843 q 171 988 125 940 l 225 947 q 176 875 189 907 q 164 829 167 853 l 229 829 l 229 688 l 88 688 z "},"’":{"ha":317,"x_min":89,"x_max":231,"o":"m 147 679 l 94 719 q 144 793 132 758 q 154 838 151 815 l 89 838 l 89 979 l 231 979 l 231 879 q 213 775 231 824 q 147 679 194 726 z "},"«":{"ha":618,"x_min":38,"x_max":567,"o":"m 214 122 l 38 372 l 214 622 l 313 622 l 149 372 l 313 122 l 214 122 m 468 122 l 292 372 l 468 622 l 567 622 l 403 372 l 567 122 l 468 122 z "},"»":{"ha":618,"x_min":51,"x_max":581,"o":"m 150 122 l 51 122 l 215 372 l 51 622 l 150 622 l 328 372 l 150 122 m 404 122 l 306 122 l 469 372 l 306 622 l 404 622 l 582 372 l 404 122 z "},"‹":{"ha":364,"x_min":38,"x_max":313,"o":"m 214 122 l 38 372 l 214 622 l 313 622 l 149 372 l 313 122 l 214 122 z "},"›":{"ha":364,"x_min":51,"x_max":328,"o":"m 150 122 l 51 122 l 215 372 l 51 622 l 150 622 l 328 372 l 150 122 z "},"\"":{"ha":544,"x_min":88,"x_max":457,"o":"m 117 594 l 88 979 l 219 979 l 193 594 l 117 594 m 354 594 l 325 979 l 457 979 l 431 594 l 354 594 z "},"'":{"ha":307,"x_min":88,"x_max":219,"o":"m 117 594 l 88 979 l 219 979 l 193 594 l 117 594 z "}," ":{"ha":363,"x_min":0,"x_max":0,"o":""}," ":{"ha":363,"x_min":0,"x_max":0,"o":""}," ":{"ha":281,"x_min":0,"x_max":0,"o":""},"​":{"ha":0,"x_min":0,"x_max":0,"o":""},"\r":{"ha":363,"x_min":0,"x_max":0,"o":""},"¢":{"ha":833,"x_min":126,"x_max":697,"o":"m 392 -160 l 392 -6 q 264 47 321 7 q 163 168 199 93 q 126 339 126 243 q 162 504 126 431 q 263 625 197 578 q 392 678 318 667 l 392 842 l 486 842 l 486 682 q 594 661 540 679 q 697 596 660 638 l 660 515 q 570 572 621 553 q 465 592 519 592 q 302 522 363 592 q 242 339 242 453 q 301 154 242 224 q 464 85 361 85 q 569 104 518 85 q 660 160 621 124 l 697 81 q 593 15 657 39 q 486 -8 540 -6 l 486 -160 l 392 -160 z "},"¤":{"ha":833,"x_min":49,"x_max":782,"o":"m 108 -36 l 49 25 l 151 129 q 101 228 119 174 q 82 340 82 282 q 100 454 82 400 q 151 551 118 508 l 49 657 l 108 717 l 211 611 q 306 665 253 646 q 417 685 358 685 q 526 666 475 685 q 621 614 578 647 l 721 718 l 782 656 l 681 553 q 733 454 714 508 q 751 340 751 400 q 733 226 751 281 q 679 128 714 172 l 782 25 l 722 -35 l 621 68 q 527 15 579 35 q 417 -4 475 -4 q 306 15 358 -4 q 210 68 253 35 l 108 -36 m 417 93 q 533 126 481 93 q 617 216 586 160 q 647 340 647 272 q 617 465 647 408 q 533 555 586 521 q 417 588 481 589 q 299 554 353 588 q 215 465 246 521 q 183 340 183 408 q 215 216 183 272 q 299 126 246 160 q 417 93 351 93 z "},"$":{"ha":833,"x_min":64,"x_max":767,"o":"m 383 -160 l 383 -6 q 219 24 297 -1 q 64 110 131 51 l 106 201 q 246 121 172 147 q 418 94 319 94 q 596 141 538 94 q 654 261 654 188 q 612 356 654 321 q 472 413 569 392 l 333 442 q 146 533 207 469 q 85 700 85 596 q 124 844 85 781 q 235 944 164 907 q 383 983 299 978 l 383 1139 l 478 1139 l 478 983 q 610 953 543 978 q 739 865 686 924 l 700 776 q 576 859 644 833 q 425 885 508 885 q 257 835 319 885 q 194 703 194 785 q 234 600 194 639 q 363 543 274 561 l 501 513 q 701 426 636 485 q 767 267 767 367 q 726 128 767 188 q 617 36 686 69 q 478 -3 556 6 l 478 -160 l 383 -160 z "},"€":{"ha":833,"x_min":22,"x_max":813,"o":"m 538 -12 q 360 32 438 -12 q 233 161 283 76 q 169 347 188 239 l 22 347 l 22 422 l 161 422 q 160 492 158 454 q 161 558 160 528 l 22 558 l 22 633 l 169 633 q 233 819 188 742 q 360 947 283 903 q 538 992 438 992 q 692 961 621 992 q 813 868 763 931 l 769 783 q 669 866 725 842 q 546 890 613 890 q 375 822 443 890 q 286 633 311 758 l 524 633 l 524 558 l 278 558 q 275 493 275 529 q 278 422 275 454 l 524 422 l 524 347 l 286 347 q 375 157 311 221 q 546 89 443 89 q 669 114 613 89 q 769 196 725 139 l 813 113 q 692 18 763 49 q 538 -12 621 -12 z "},"£":{"ha":833,"x_min":64,"x_max":792,"o":"m 64 0 l 64 81 q 168 145 131 107 q 206 243 206 183 l 206 453 l 64 453 l 64 529 l 206 529 l 206 708 q 240 862 206 799 q 342 958 274 925 q 513 992 410 992 q 667 963 594 992 q 792 882 739 935 l 746 794 q 641 870 699 846 q 511 894 583 894 q 368 849 415 894 q 321 713 321 803 l 321 529 l 578 529 l 578 453 l 321 453 l 321 276 q 289 156 321 200 q 222 97 263 119 l 782 97 l 782 0 l 64 0 z "},"¥":{"ha":833,"x_min":-7,"x_max":840,"o":"m 360 0 l 360 247 l 100 247 l 100 322 l 360 322 l 360 460 l 100 460 l 100 535 l 313 535 l -7 979 l 121 979 l 417 563 l 713 979 l 840 979 l 522 535 l 733 535 l 733 460 l 474 460 l 474 322 l 733 322 l 733 247 l 474 247 l 474 0 l 360 0 z "},"∕":{"ha":833,"x_min":171,"x_max":663,"o":"m 274 -69 l 171 -69 l 561 1035 l 663 1035 l 274 -69 z "},"+":{"ha":833,"x_min":74,"x_max":760,"o":"m 372 53 l 372 356 l 74 356 l 74 442 l 372 442 l 372 738 l 461 738 l 461 442 l 760 442 l 760 356 l 461 356 l 461 53 l 372 53 z "},"−":{"ha":833,"x_min":74,"x_max":760,"o":"m 74 356 l 74 442 l 760 442 l 760 356 l 74 356 z "},"×":{"ha":833,"x_min":90,"x_max":743,"o":"m 151 69 l 90 129 l 356 396 l 90 661 l 151 721 l 417 457 l 682 721 l 743 661 l 478 396 l 743 129 l 682 69 l 417 333 l 151 69 z "},"÷":{"ha":833,"x_min":74,"x_max":760,"o":"m 74 356 l 74 442 l 760 442 l 760 356 l 74 356 m 350 63 l 350 182 l 469 182 l 469 63 l 350 63 m 350 615 l 350 735 l 469 735 l 469 615 l 350 615 z "},"=":{"ha":833,"x_min":74,"x_max":760,"o":"m 74 494 l 74 581 l 760 581 l 760 494 l 74 494 m 74 218 l 74 303 l 760 303 l 760 218 l 74 218 z "},">":{"ha":833,"x_min":75,"x_max":760,"o":"m 75 47 l 75 144 l 651 399 l 75 654 l 75 750 l 760 443 l 760 354 l 75 47 z "},"<":{"ha":833,"x_min":74,"x_max":760,"o":"m 760 47 l 74 354 l 74 443 l 760 750 l 760 654 l 182 399 l 760 144 l 760 47 z "},"±":{"ha":833,"x_min":74,"x_max":760,"o":"m 372 176 l 372 413 l 74 413 l 74 499 l 372 499 l 372 735 l 461 735 l 461 499 l 760 499 l 760 413 l 461 413 l 461 176 l 372 176 m 74 0 l 74 86 l 760 86 l 760 0 l 74 0 z "},"~":{"ha":833,"x_min":74,"x_max":760,"o":"m 579 301 q 502 315 543 301 q 401 360 461 328 q 315 402 344 392 q 261 413 285 413 q 144 322 183 413 l 74 360 q 148 462 101 426 q 254 497 194 497 q 330 484 290 497 q 429 440 369 471 q 515 399 483 413 q 572 385 546 385 q 689 476 650 385 l 760 438 q 686 336 732 371 q 579 301 640 301 z "},"¬":{"ha":833,"x_min":74,"x_max":760,"o":"m 671 206 l 671 497 l 74 497 l 74 583 l 760 583 l 760 206 l 671 206 z "},"^":{"ha":833,"x_min":64,"x_max":769,"o":"m 64 197 l 372 872 l 460 872 l 769 197 l 676 197 l 415 765 l 157 197 l 64 197 z "},"µ":{"ha":792,"x_min":103,"x_max":688,"o":"m 103 -289 l 103 697 l 215 697 l 215 261 q 253 126 215 168 q 372 83 292 83 q 519 141 463 83 q 575 296 575 199 l 575 697 l 688 697 l 688 0 l 578 0 l 578 124 q 507 32 553 67 q 371 -12 449 -12 q 263 10 310 -12 q 207 61 229 25 l 215 -289 l 103 -289 z "},"%":{"ha":1301,"x_min":71,"x_max":1232,"o":"m 411 0 l 310 0 l 892 979 l 993 979 l 411 0 m 313 392 q 135 472 200 392 q 71 692 71 551 q 136 912 71 833 q 313 990 201 990 q 490 912 425 990 q 554 692 554 833 q 490 472 554 551 q 313 392 425 392 m 313 472 q 419 527 381 472 q 457 692 457 582 q 419 857 457 803 q 313 911 381 911 q 208 857 246 911 q 169 692 169 803 q 208 526 169 581 q 313 472 246 472 m 990 -12 q 812 67 876 -12 q 747 289 747 146 q 813 508 747 431 q 990 586 878 586 q 1167 508 1103 586 q 1232 289 1232 429 q 1167 67 1232 147 q 990 -12 1103 -12 m 990 68 q 1095 123 1057 68 q 1133 289 1133 178 q 1095 453 1133 399 q 990 507 1057 507 q 885 453 922 507 q 847 289 847 399 q 885 122 847 176 q 990 68 922 68 z "},"@":{"ha":1346,"x_min":86,"x_max":1261,"o":"m 689 -226 q 442 -184 553 -226 q 251 -62 331 -142 q 129 128 172 17 q 86 378 86 240 q 131 628 86 515 q 258 822 175 740 q 456 947 342 903 q 707 992 569 992 q 998 928 874 992 q 1192 748 1122 864 q 1261 476 1261 632 q 1226 268 1261 357 q 1131 131 1192 179 q 986 82 1069 82 q 860 131 903 82 q 825 207 832 161 q 749 126 793 157 q 610 82 683 82 q 440 149 500 82 q 379 335 379 217 q 419 517 379 438 q 528 642 458 597 q 686 688 597 688 q 815 650 765 688 q 868 578 851 622 l 886 675 l 978 675 l 914 315 q 909 281 911 297 q 907 250 907 264 q 928 181 907 204 q 993 157 950 157 q 1090 197 1049 157 q 1156 309 1132 238 q 1179 476 1179 381 q 1121 708 1179 610 q 956 859 1063 806 q 707 913 850 913 q 427 846 547 913 q 241 659 307 779 q 175 378 175 539 q 238 96 175 214 q 416 -85 300 -22 q 689 -149 532 -149 q 899 -113 804 -149 q 1054 -12 993 -78 l 1100 -81 q 924 -189 1032 -151 q 689 -226 817 -226 m 622 163 q 736 199 686 163 q 815 301 786 236 q 843 450 843 367 q 808 568 843 529 q 699 607 774 607 q 584 572 635 607 q 504 476 533 538 q 475 335 475 415 q 513 207 475 251 q 622 163 551 163 z "},"&":{"ha":932,"x_min":71,"x_max":951,"o":"m 906 -12 q 786 60 842 17 q 707 126 742 93 q 575 28 651 64 q 390 -12 490 -12 q 219 19 290 -12 q 109 106 147 50 q 71 235 71 161 q 126 397 71 331 q 285 531 182 464 l 308 546 q 219 664 247 611 q 189 776 189 718 q 219 889 189 840 q 305 965 250 938 q 435 992 360 992 q 592 938 529 992 q 656 793 656 885 q 635 699 656 743 q 568 614 615 656 q 457 532 526 575 l 697 272 q 744 397 726 324 q 767 574 764 481 l 865 574 q 833 360 863 458 q 767 201 808 272 q 840 139 799 171 q 951 71 892 99 l 906 -12 m 394 79 q 543 113 478 79 q 640 192 597 140 l 368 482 l 351 472 q 256 399 293 433 q 200 326 218 364 q 182 242 182 289 q 237 122 182 165 q 394 79 292 79 m 435 907 q 333 872 372 907 q 294 778 294 836 q 305 721 294 747 q 340 664 315 694 q 399 594 363 635 q 517 686 478 644 q 560 788 560 732 q 526 874 560 842 q 435 907 492 907 z "},"¶":{"ha":832,"x_min":63,"x_max":710,"o":"m 346 -250 l 346 431 q 196 466 260 431 q 97 563 132 501 q 63 706 63 625 q 97 848 63 786 q 197 944 132 910 q 349 979 261 979 l 710 979 l 710 -250 l 619 -250 l 619 893 l 436 893 l 436 -250 l 346 -250 z "},"§":{"ha":753,"x_min":49,"x_max":708,"o":"m 343 -262 q 178 -239 253 -262 q 57 -174 104 -215 l 96 -93 q 166 -137 125 -118 q 253 -166 207 -156 q 347 -176 300 -176 q 486 -136 433 -176 q 539 -21 539 -96 q 510 70 539 32 q 408 142 482 108 l 251 213 q 131 284 175 249 q 67 361 86 319 q 49 453 49 403 q 78 564 49 511 q 135 635 100 604 q 118 669 125 650 q 107 742 107 699 q 146 876 107 821 q 253 960 185 931 q 408 990 321 990 q 564 968 493 990 q 681 904 635 946 l 642 825 q 533 883 597 863 q 406 904 469 904 q 270 864 322 904 q 218 749 218 824 q 247 659 218 697 q 349 588 276 621 l 506 515 q 626 444 582 481 q 690 367 671 408 q 708 275 708 326 q 679 165 708 218 q 622 94 657 124 q 639 60 632 79 q 650 -14 650 29 q 611 -147 650 -92 q 503 -233 572 -203 q 343 -262 435 -262 m 153 469 q 185 380 153 419 q 306 300 217 340 l 439 239 q 528 189 492 214 q 567 156 551 172 q 606 260 606 200 q 572 349 606 310 q 453 428 539 389 l 318 490 q 231 542 267 515 q 190 575 207 558 q 168 538 176 557 q 153 469 153 506 z "},"©":{"ha":1132,"x_min":64,"x_max":1068,"o":"m 567 -12 q 369 26 461 -12 q 208 132 276 64 q 102 292 140 200 q 64 490 64 385 q 102 688 64 597 q 208 847 140 779 q 368 953 276 915 q 567 992 460 992 q 765 953 674 992 q 924 847 857 915 q 1030 688 992 779 q 1068 490 1068 597 q 1030 292 1068 385 q 924 132 992 200 q 765 26 856 64 q 567 -12 674 -12 m 585 190 q 373 274 450 190 q 296 493 296 357 q 373 710 296 631 q 585 789 450 789 q 694 769 640 789 q 783 715 749 750 l 750 643 q 672 692 714 676 q 589 707 631 707 q 447 651 499 707 q 396 492 396 594 q 447 333 396 392 q 589 274 499 274 q 672 289 631 274 q 750 338 714 304 l 783 264 q 694 210 749 231 q 585 190 639 190 m 567 49 q 740 82 660 49 q 878 176 819 115 q 971 316 938 236 q 1004 490 1004 396 q 971 665 1004 585 q 878 804 938 744 q 740 897 819 864 q 567 931 660 931 q 392 897 472 931 q 253 804 313 864 q 161 665 194 744 q 128 490 128 585 q 161 316 128 396 q 253 176 194 236 q 393 82 313 115 q 567 49 474 49 z "},"®":{"ha":1132,"x_min":64,"x_max":1068,"o":"m 567 -12 q 369 26 461 -12 q 208 132 276 64 q 102 292 140 200 q 64 490 64 385 q 102 688 64 597 q 208 847 140 779 q 368 953 276 915 q 567 992 460 992 q 765 953 674 992 q 924 847 857 915 q 1030 688 992 779 q 1068 490 1068 597 q 1030 292 1068 385 q 924 132 992 200 q 765 26 856 64 q 567 -12 674 -12 m 567 49 q 740 82 660 49 q 878 176 819 115 q 971 316 938 236 q 1004 490 1004 396 q 971 665 1004 585 q 878 804 938 744 q 740 897 819 864 q 567 931 660 931 q 392 897 472 931 q 253 804 313 864 q 161 665 194 744 q 128 490 128 585 q 161 316 128 396 q 253 176 194 236 q 393 82 313 115 q 567 49 474 49 m 367 197 l 367 783 l 604 783 q 749 738 699 783 q 800 614 800 693 q 750 492 800 533 q 672 456 718 465 q 696 444 685 450 q 740 375 724 425 l 807 197 l 711 197 l 644 378 q 606 424 632 413 q 544 436 581 436 l 458 436 l 458 197 l 367 197 m 458 511 l 593 511 q 681 535 651 511 q 710 610 710 558 q 681 685 710 661 q 593 708 653 708 l 458 708 l 458 511 z "},"™":{"ha":1285,"x_min":11,"x_max":1172,"o":"m 589 394 l 589 979 l 672 979 l 882 596 l 1090 979 l 1172 979 l 1172 394 l 1081 394 l 1081 803 l 908 489 l 853 489 l 681 800 l 681 394 l 589 394 m 204 394 l 204 893 l 11 893 l 11 979 l 500 979 l 500 893 l 307 893 l 307 394 l 204 394 z "},"°":{"ha":515,"x_min":51,"x_max":463,"o":"m 258 581 q 153 608 200 581 q 78 682 106 636 q 51 786 51 728 q 78 891 51 844 q 153 965 106 938 q 258 992 200 992 q 363 965 317 992 q 435 892 408 938 q 463 786 463 846 q 435 681 463 728 q 363 608 408 635 q 258 581 317 581 m 258 657 q 348 694 314 657 q 382 786 382 731 q 348 879 382 843 q 258 915 314 915 q 169 879 204 915 q 133 786 133 843 q 168 694 133 731 q 258 657 203 657 z "},"′":{"ha":307,"x_min":88,"x_max":219,"o":"m 117 594 l 88 979 l 219 979 l 193 594 l 117 594 z "},"″":{"ha":544,"x_min":88,"x_max":457,"o":"m 117 594 l 88 979 l 219 979 l 193 594 l 117 594 m 354 594 l 325 979 l 457 979 l 431 594 l 354 594 z "},"|":{"ha":367,"x_min":128,"x_max":240,"o":"m 128 -258 l 128 988 l 240 988 l 240 -258 l 128 -258 z "},"¦":{"ha":367,"x_min":128,"x_max":240,"o":"m 128 517 l 128 988 l 240 988 l 240 517 l 128 517 m 128 -258 l 128 213 l 240 213 l 240 -258 l 128 -258 z "},"ʼ":{"ha":449,"x_min":157,"x_max":293,"o":"m 224 793 l 174 829 q 214 889 204 860 q 222 929 219 910 l 157 929 l 157 1049 l 293 1049 l 293 965 q 278 873 293 915 q 224 793 264 831 z "},"ʻ":{"ha":694,"x_min":279,"x_max":415,"o":"m 279 788 l 279 872 q 294 965 279 922 q 349 1044 308 1007 l 397 1008 q 358 949 367 976 q 350 908 353 929 l 415 908 l 415 788 l 279 788 z "},"̈":{"ha":0,"x_min":-181,"x_max":181,"o":"m 61 846 l 61 965 l 181 965 l 181 846 l 61 846 m -181 846 l -181 965 l -61 965 l -61 846 l -181 846 z "},"̀":{"ha":0,"x_min":-224,"x_max":40,"o":"m -40 765 l -224 1046 l -103 1046 l 40 765 l -40 765 z "},"́":{"ha":0,"x_min":-40,"x_max":224,"o":"m -40 765 l 103 1046 l 224 1046 l 40 765 l -40 765 z "},"̃":{"ha":0,"x_min":-250,"x_max":250,"o":"m -186 819 l -250 824 q -203 960 -243 913 q -101 1008 -162 1008 q -45 994 -71 1008 q 14 951 -19 981 q 63 913 44 924 q 100 903 82 903 q 186 1013 171 903 l 250 1008 q 203 872 243 919 q 103 824 164 824 q 47 838 74 824 q -14 882 21 851 q -62 919 -43 908 q -100 929 -81 929 q -158 901 -136 929 q -186 819 -179 872 z "},"̄":{"ha":0,"x_min":-206,"x_max":206,"o":"m -206 868 l -206 944 l 206 944 l 206 868 l -206 868 z "},"̉":{"ha":0,"x_min":-122,"x_max":140,"o":"m -37 765 l -37 794 q -24 847 -37 826 q 6 883 -11 868 q 35 913 22 897 q 49 947 49 928 q 33 976 49 967 q -15 986 17 986 q -58 981 -37 986 q -104 965 -78 976 l -122 1024 q -65 1047 -97 1040 q 6 1054 -32 1054 q 105 1030 69 1054 q 140 960 140 1006 q 125 904 140 925 q 90 868 110 883 q 53 835 69 853 q 38 788 38 817 l 38 765 l -37 765 z "},"̣":{"ha":0,"x_min":-64,"x_max":64,"o":"m -64 -260 l -64 -137 l 64 -137 l 64 -260 l -64 -260 z "},"¨":{"ha":694,"x_min":167,"x_max":528,"o":"m 408 846 l 408 965 l 528 965 l 528 846 l 408 846 m 167 846 l 167 965 l 286 965 l 286 846 l 167 846 z "},"`":{"ha":694,"x_min":124,"x_max":388,"o":"m 307 765 l 124 1046 l 244 1046 l 388 765 l 307 765 z "},"´":{"ha":694,"x_min":307,"x_max":571,"o":"m 307 765 l 450 1046 l 571 1046 l 388 765 l 307 765 z "},"ˆ":{"ha":694,"x_min":142,"x_max":553,"o":"m 142 765 l 293 1046 l 401 1046 l 553 765 l 475 765 l 347 971 l 219 765 l 142 765 z "},"˚":{"ha":694,"x_min":182,"x_max":513,"o":"m 347 760 q 264 781 301 760 q 204 838 226 801 q 182 919 182 875 q 204 1001 182 965 q 264 1059 226 1038 q 347 1081 301 1081 q 431 1059 394 1081 q 490 1001 468 1038 q 513 919 513 965 q 490 838 513 875 q 431 781 468 801 q 347 760 394 760 m 347 819 q 419 849 392 819 q 447 919 447 878 q 419 991 447 963 q 347 1019 392 1019 q 276 991 304 1019 q 247 919 247 963 q 276 849 247 878 q 347 819 304 819 z "},"˜":{"ha":694,"x_min":97,"x_max":597,"o":"m 161 819 l 97 824 q 144 960 104 913 q 246 1008 185 1008 q 302 994 276 1008 q 361 951 328 981 q 410 913 392 924 q 447 903 429 903 q 533 1013 518 903 l 597 1008 q 551 872 590 919 q 450 824 511 824 q 394 838 421 824 q 333 882 368 851 q 285 919 304 908 q 247 929 267 929 q 190 901 211 929 q 161 819 168 872 z "},"¯":{"ha":694,"x_min":142,"x_max":553,"o":"m 142 868 l 142 944 l 553 944 l 553 868 l 142 868 z "},"¸":{"ha":694,"x_min":226,"x_max":507,"o":"m 351 -267 q 283 -260 315 -267 q 226 -240 250 -253 l 246 -179 q 294 -196 271 -190 q 347 -201 317 -201 q 407 -188 385 -201 q 429 -150 429 -175 q 376 -111 429 -111 q 347 -113 361 -111 q 311 -124 332 -115 l 288 -101 l 308 28 l 379 28 l 364 -61 q 390 -58 378 -58 q 474 -83 440 -58 q 507 -153 507 -108 q 464 -235 507 -204 q 351 -267 421 -267 z "},"\u0000":{"ha":0,"x_min":0,"x_max":0,"o":""}}}
